<svg width="73" height="74" viewBox="0 0 73 74" fill="none" xmlns="http://www.w3.org/2000/svg">
<g clip-path="url(#clip0_249_12143)">
<path d="M62.1175 22.18C51.2477 20.5905 52.3257 10.5164 52.3257 10.5164C41.5047 10.1516 36.3328 0.269897 36.3328 0.269897C36.3328 0.269897 31.1584 10.1416 20.3374 10.5164C20.3374 10.5164 21.418 20.5905 10.5456 22.18C10.5456 22.18 10.4711 32.0067 0.476562 35.4255C0.476562 35.4255 1.64183 41.8284 8.84388 44.6724C8.84388 44.6724 9.66778 57.0857 21.8363 63.5935C22.9221 64.1642 24.0597 64.6361 25.2346 65.003C27.8295 65.8378 34.1589 68.3569 36.3328 73.6701C38.5068 68.3569 44.8336 65.8402 47.4311 65.008C48.6057 64.6393 49.7432 64.1667 50.8293 63.596C62.9953 57.0982 63.8218 44.6749 63.8218 44.6749C71.0084 41.8384 72.1865 35.428 72.1865 35.428C62.1945 32.0067 62.1175 22.18 62.1175 22.18Z" fill="#B5B5B5" stroke="#FAFAFA" stroke-miterlimit="10"/>
<path d="M28.0267 12.0259H26.7588V16.8143H28.0267V12.0259Z" fill="#FAFAFA"/>
<path d="M41.0863 12.0134H39.8184V16.8018H41.0863V12.0134Z" fill="#FAFAFA"/>
<path d="M28.8538 12.0259C28.8281 12.3887 28.8281 12.7527 28.8538 13.1155H31.1125L29.0258 15.5147L28.9539 15.5972C28.8083 15.77 28.7326 15.9886 28.7408 16.212V16.8168H32.7294V15.7271H30.4605L32.578 13.3004C32.7283 13.133 32.8184 12.9224 32.8347 12.7007V12.0259H28.8538Z" fill="#FAFAFA"/>
<path d="M33.4678 16.8168H34.6459V13.4629L35.4929 16.8168H36.7736L37.6643 13.4579V16.8168H38.8064V12.0184H37.0431L36.1345 15.4098L35.2105 12.0259H33.4678V16.8168Z" fill="#FAFAFA"/>
<path d="M45.8757 15.7072V16.3345C45.8601 16.4897 45.8785 16.6465 45.9296 16.7943V16.8168H44.8336C44.8336 16.7843 44.8336 16.7193 44.8336 16.5019V16.097C44.8336 15.4772 44.6796 15.2498 44.2202 15.2498H43.1191V16.8168H42.0693V12.0084H44.4923C45.7089 12.0084 45.8654 12.7357 45.8654 13.3105V13.368C45.8654 14.0102 45.542 14.3851 45.1545 14.5076C45.5754 14.6325 45.8757 14.9824 45.8757 15.7072ZM44.3357 14.0752C44.6745 14.0752 44.7566 13.8603 44.7566 13.6154V13.6029C44.7566 13.368 44.6745 13.163 44.3357 13.163H43.1037V14.0677L44.3357 14.0752Z" fill="#FAFAFA"/>
<path d="M40.873 10.5365H39.9824V11.4637H40.873V10.5365Z" fill="#FAFAFA"/>
<path d="M27.834 10.5365H26.9434V11.4637H27.834V10.5365Z" fill="#FAFAFA"/>
<path d="M29.1562 60.7269C30.1367 60.7269 30.4755 60.557 30.6731 59.9772H31.5253V64.6131H30.2573V61.7416H29.1562V60.7269Z" fill="#FAFAFA"/>
<path d="M36.3838 60.7269C37.3617 60.7269 37.7005 60.557 37.9007 59.9772H38.7528V64.6131H37.4849V61.7416H36.3838V60.7269Z" fill="#FAFAFA"/>
<path d="M33.1143 63.3511C33.1528 63.4938 33.2402 63.6194 33.3621 63.7072C33.4839 63.7949 33.6328 63.8395 33.7842 63.8335C33.8887 63.8341 33.9921 63.8121 34.0867 63.7688C34.1812 63.7256 34.2647 63.6623 34.3309 63.5836C34.4849 63.4161 34.5645 63.0212 34.5748 62.4015C34.4515 62.5502 34.2949 62.6695 34.1169 62.7501C33.9389 62.8307 33.7443 62.8704 33.5481 62.8663C33.3594 62.8729 33.1712 62.8425 32.9948 62.7768C32.8184 62.7111 32.6574 62.6115 32.5214 62.4839C32.3863 62.3539 32.2806 62.1978 32.2112 62.0256C32.1418 61.8535 32.1102 61.6691 32.1185 61.4843C32.1104 61.2822 32.147 61.0807 32.2258 60.8936C32.3047 60.7065 32.4238 60.538 32.5753 60.3996C32.9169 60.1104 33.3604 59.9616 33.8125 59.9848C34.1544 59.9774 34.4915 60.064 34.7852 60.2347C35.081 60.4214 35.3048 60.6982 35.4218 61.0219C35.5758 61.4107 35.6517 61.8248 35.6451 62.2415C35.6663 62.8412 35.4998 63.433 35.1677 63.9384C35.0104 64.163 34.796 64.3442 34.5455 64.4642C34.2949 64.5842 34.0168 64.639 33.738 64.6232C32.9244 64.6232 32.4547 64.0834 32.2571 63.3536L33.1143 63.3511ZM33.833 60.732C33.7397 60.7297 33.647 60.7472 33.5614 60.7835C33.4758 60.8198 33.3994 60.8739 33.3376 60.9419C33.2155 61.0715 33.1478 61.2409 33.1478 61.4168C33.1478 61.5926 33.2155 61.7621 33.3376 61.8916C33.3989 61.9594 33.4749 62.013 33.5602 62.0485C33.6454 62.084 33.7378 62.1004 33.8304 62.0966C33.9266 62.1008 34.0226 62.0842 34.1114 62.0479C34.2002 62.0116 34.2795 61.9565 34.3438 61.8866C34.4694 61.7586 34.54 61.5888 34.5414 61.4118C34.5428 61.2355 34.4727 61.0658 34.3463 60.9394C34.2822 60.8696 34.2028 60.8147 34.1139 60.7788C34.0251 60.7429 33.9291 60.7269 33.833 60.732Z" fill="#FAFAFA"/>
<path d="M42.6749 59.9022V62.7338H43.3422V63.551H42.6749V64.6231H41.5584V63.551H39.4717V62.7363L41.3967 59.9047L42.6749 59.9022ZM40.3161 62.7338H41.6123V61.1618C41.6123 61.0993 41.6123 61.0268 41.6123 60.9394V60.7494L40.3161 62.7338Z" fill="#FAFAFA"/>
<path d="M36.3296 58.0853C47.3098 58.0853 56.211 49.4182 56.211 38.7269C56.211 28.0355 47.3098 19.3684 36.3296 19.3684C25.3494 19.3684 16.4482 28.0355 16.4482 38.7269C16.4482 49.4182 25.3494 58.0853 36.3296 58.0853Z" fill="#FAFAFA"/>
<path d="M24.6925 35.573H22.1002L19.9365 44.9248H22.285L22.7599 43.043H24.0432L24.5206 44.9248H26.8665L24.6925 35.573ZM22.6238 41.1836L23.3374 37.4574L24.0663 41.1836H22.6238Z" fill="#B5B5B5"/>
<path d="M44.3201 35.573H41.7278L39.5615 44.9248H41.9126L42.3874 43.043H43.6708L44.1456 44.9248H46.4966L44.3201 35.573ZM42.2668 41.1836L42.9829 37.4574L43.7118 41.1836H42.2668Z" fill="#B5B5B5"/>
<path d="M28.2891 35.6405V44.9224H33.3582V43.063H30.1987V35.6405H28.2891Z" fill="#B5B5B5"/>
<path d="M26.2812 32.5291V34.3884H35.511V44.9224H37.4231V34.3884H46.6528V32.5291H26.2812Z" fill="#B5B5B5"/>
<path d="M50.116 35.6405L49.1637 38.627L48.2089 35.6405H45.5986L47.9266 40.6738V44.9224H49.1637H50.3983V40.6738L52.7262 35.6405H50.116Z" fill="#B5B5B5"/>
</g>
<defs>
<clipPath id="clip0_249_12143">
<rect width="72" height="74" fill="white" transform="translate(0.330078)"/>
</clipPath>
</defs>
</svg>
