<svg width="89" height="74" viewBox="0 0 89 74" fill="none" xmlns="http://www.w3.org/2000/svg">
<g clip-path="url(#clip0_249_12162)">
<path d="M81.252 5.89594C81.1825 5.77562 81.1233 5.64989 81.075 5.52005C81.0114 5.40031 80.9431 5.28361 80.8717 5.16993C80.7272 4.94334 80.5664 4.72707 80.3905 4.52274C79.8401 3.9044 79.1829 3.38523 78.4486 2.98887C77.6049 2.52028 76.6932 2.17941 75.7447 1.97791C75.1874 1.85666 74.6147 1.82634 74.0729 1.6293C73.8801 1.56131 73.6923 1.48028 73.511 1.3868C73.225 1.24075 72.9633 1.0532 72.7349 0.830542C72.6495 0.74623 72.5764 0.650861 72.5176 0.54711C72.5047 0.524526 72.4943 0.500642 72.4866 0.475873C72.4707 0.394688 72.4419 0.316435 72.4012 0.243974C72.3356 0.15106 72.2432 0.0793032 72.1358 0.0378415C72.0714 0.0136911 72.003 0.0013593 71.934 0.00146552H16.7215C16.6525 0.0013593 16.5841 0.0136911 16.5197 0.0378415C16.4114 0.080932 16.3189 0.154876 16.2543 0.250037C16.2136 0.322498 16.1848 0.40075 16.1689 0.481936C16.1599 0.50621 16.1495 0.52999 16.1379 0.553173C16.0791 0.656924 16.006 0.752293 15.9206 0.836604C15.6924 1.05951 15.4307 1.24709 15.1445 1.39286C14.9638 1.4866 14.7766 1.56765 14.5841 1.63537C14.0424 1.82634 13.4696 1.86272 12.9108 1.98397C11.9629 2.18576 11.0518 2.52661 10.2084 2.99493C9.47577 3.38977 8.81962 3.90685 8.26968 4.52274C8.09379 4.72707 7.93299 4.94334 7.78849 5.16993C7.71709 5.28361 7.6488 5.40031 7.58515 5.52005C7.53687 5.64989 7.47768 5.77562 7.4082 5.89594C7.4082 5.89594 0.966488 6.67197 0.330078 8.49685V19.7568C0.330078 19.7568 1.80158 20.3388 5.61849 19.9508C6.97841 19.7935 8.34557 19.7029 9.7148 19.6795C9.7148 19.6795 11.6147 19.5628 12.4917 18.4427C12.4917 18.4427 13.3423 18.4427 14.1992 19.2248C14.7238 19.7068 15.3509 20.2858 15.7514 20.6647V39.2833L15.7809 40.6671C16.0013 45.9948 17.4992 50.4251 19.9408 54.2764C20.45 55.0848 20.9994 55.8649 21.5893 56.6166C21.8128 56.9198 22.042 57.2158 22.2769 57.5048L22.3514 57.5973C22.6619 57.9802 22.9796 58.3581 23.3045 58.731L23.3759 58.8113C23.7081 59.1872 24.0495 59.5601 24.4019 59.9254C24.4205 59.9466 24.4407 59.9678 24.4609 59.9875C24.82 60.3604 25.1873 60.7282 25.563 61.0909L25.6033 61.1288C25.9903 61.5007 26.3856 61.8669 26.7892 62.2277L26.8016 62.2383C31.3434 66.3003 37.0028 69.803 43.1481 73.3573C43.2257 73.4028 43.3033 73.4482 43.3824 73.4922L43.5066 73.565L43.1481 73.3573L42.4418 72.9496L43.4228 73.518L43.502 73.565L44.0685 73.8908L44.1974 73.9666C44.2359 73.9887 44.2799 74.0002 44.3246 74C44.3699 74.0002 44.4143 73.9887 44.4535 73.9666L44.5823 73.8908L45.1473 73.565L45.2234 73.521C51.5875 69.85 57.4331 66.2457 62.0836 62.0291C67.6716 57.2396 71.577 51.6467 72.5424 44.0532C72.7135 42.9336 72.8223 41.8058 72.8684 40.6747L72.8979 39.2909V20.6647C73.2999 20.2888 73.9301 19.7038 74.4579 19.2188C75.3101 18.4367 76.1653 18.4367 76.1653 18.4367C77.0408 19.5628 78.9485 19.6795 78.9485 19.6795C80.3167 19.704 81.6828 19.7956 83.0417 19.9539C86.8586 20.3419 88.3301 19.7599 88.3301 19.7599V8.49685C87.6937 6.67197 81.252 5.89594 81.252 5.89594Z" fill="#B5B5B5"/>
<path d="M11.0949 8.72581C11.2749 8.81069 11.4395 8.65761 11.545 8.53332C11.6536 8.40853 11.7154 8.25138 11.7204 8.08771V6.92974C11.7204 6.49322 11.3541 6.59325 11.3541 6.59325C11.2385 6.62656 11.1364 6.69397 11.0616 6.78624C10.9868 6.87851 10.9432 6.99111 10.9365 7.10859V8.4727C10.9359 8.52516 10.9504 8.57674 10.9784 8.62151C11.0064 8.66629 11.0468 8.70244 11.0949 8.72581Z" fill="#FAFAFA"/>
<path d="M45.1523 73.5658L45.2341 73.5181L45.1523 73.5658Z" fill="#FAFAFA"/>
<path d="M81.252 5.89594C81.1825 5.77562 81.1233 5.64989 81.075 5.52005C81.0114 5.40031 80.9431 5.28361 80.8717 5.16993C80.7272 4.94334 80.5664 4.72707 80.3905 4.52274C79.8401 3.9044 79.1829 3.38523 78.4486 2.98887C77.6049 2.52028 76.6932 2.17941 75.7447 1.97791C75.1874 1.85666 74.6147 1.82634 74.0729 1.6293C73.8801 1.56131 73.6923 1.48028 73.511 1.3868C73.225 1.24075 72.9633 1.0532 72.7349 0.830542C72.6499 0.745938 72.5768 0.650617 72.5176 0.54711C72.5047 0.524526 72.4943 0.500642 72.4866 0.475873C72.4708 0.394453 72.4414 0.316113 72.3996 0.243974C72.3351 0.150784 72.2431 0.0789096 72.1358 0.0378415C72.0714 0.0136911 72.003 0.0013593 71.934 0.00146552H16.7215C16.6525 0.0013593 16.5841 0.0136911 16.5197 0.0378415C16.4114 0.080932 16.3189 0.154876 16.2543 0.250037C16.2136 0.322498 16.1848 0.40075 16.1689 0.481936C16.1599 0.50621 16.1495 0.52999 16.1379 0.553173C16.0787 0.65668 16.0056 0.752 15.9206 0.836604C15.6922 1.05926 15.4305 1.24681 15.1445 1.39286C14.9632 1.48634 14.7754 1.56737 14.5826 1.63537C14.0408 1.82634 13.4681 1.86272 12.9093 1.98397C11.9613 2.18576 11.0502 2.52661 10.2069 2.99493C9.47477 3.38992 8.81916 3.90699 8.26968 4.52274C8.09379 4.72707 7.93299 4.94334 7.78849 5.16993C7.71709 5.28361 7.6488 5.40031 7.58515 5.52005C7.53687 5.64989 7.47768 5.77562 7.4082 5.89594C7.4082 5.89594 0.966488 6.67197 0.330078 8.49685V19.7568C0.330078 19.7568 1.80158 20.3388 5.61849 19.9508C6.97841 19.7935 8.34557 19.7029 9.7148 19.6795C9.7148 19.6795 11.6147 19.5628 12.4917 18.4427C12.4917 18.4427 13.3423 18.4427 14.1992 19.2248C14.7238 19.7068 15.3509 20.2858 15.7514 20.6647V39.2833L15.7809 40.6671C16.0013 45.9947 17.4992 50.4251 19.9408 54.2764C20.45 55.0848 20.9994 55.8649 21.5893 56.6166C21.8128 56.9198 22.042 57.2158 22.2769 57.5048L22.3514 57.5973C22.6619 57.9802 22.9796 58.3581 23.3045 58.731L23.3759 58.8113C23.7081 59.1872 24.0495 59.5601 24.4019 59.9254C24.4205 59.9466 24.4407 59.9678 24.4609 59.9875C24.82 60.3604 25.1873 60.7282 25.563 61.0909L25.6033 61.1288C25.9903 61.5007 26.3856 61.8669 26.7892 62.2277L26.8016 62.2383C31.3434 66.3003 37.0028 69.803 43.1481 73.3573L42.4418 72.9496L43.4228 73.518L43.502 73.565L44.0685 73.8908L44.1974 73.9666C44.2363 73.9884 44.2805 73.9999 44.3254 73.9999C44.3703 73.9999 44.4145 73.9884 44.4535 73.9666L44.5823 73.8908L45.1473 73.565L45.2234 73.521C51.5875 69.85 57.4331 66.2457 62.0836 62.0291C67.6716 57.2396 71.577 51.6467 72.5424 44.0532C72.7135 42.9336 72.8223 41.8058 72.8684 40.6747L72.8979 39.2909V20.6647C73.2999 20.2888 73.9301 19.7038 74.4579 19.2188C75.3101 18.4367 76.1653 18.4367 76.1653 18.4367C77.0408 19.5628 78.9485 19.6795 78.9485 19.6795C80.3167 19.704 81.6828 19.7956 83.0417 19.9539C86.8586 20.3419 88.3301 19.7599 88.3301 19.7599V8.49685C87.6937 6.67197 81.252 5.89594 81.252 5.89594ZM9.69462 6.74775C10.0196 6.14148 10.5758 5.66303 11.3633 5.31241C12.6702 4.72836 13.3154 5.24673 13.2989 6.86749L13.2802 8.68631C13.2709 9.57146 13.1649 10.2636 12.962 10.7628C12.8348 11.1117 12.6365 11.4318 12.3791 11.7038C12.1216 11.9757 11.8104 12.1939 11.4642 12.3452C10.7843 12.6483 10.2581 12.7559 9.99109 12.568C9.43385 12.1739 9.52543 11.6843 9.50525 11.0326L11.0404 10.3945C11.0482 10.8128 11.0404 11.3039 11.3508 11.1644C11.5976 11.0553 11.6613 10.928 11.7327 10.6036C11.7584 10.3518 11.7698 10.0988 11.7668 9.8458V9.3911C11.4688 9.75031 11.2173 10.0171 10.8262 10.1914C9.8307 10.637 9.33968 10.1681 9.35313 8.78483C9.36089 7.93756 9.41367 7.25854 9.69462 6.74775ZM2.24397 11.0887C2.65065 11.0887 3.31344 10.3308 3.48574 9.6427L4.72752 9.16374L4.76787 16.0267L3.20634 16.7497L3.10234 11.7692L2.23776 12.2906L2.24397 11.0887ZM10.4956 17.8819C10.4002 18.0192 10.2643 18.1249 10.106 18.1851C10.0656 18.2033 9.93832 18.2518 9.87933 18.2684C9.66628 18.3377 9.44611 18.3839 9.22275 18.4064C8.87571 18.4409 8.52687 18.4551 8.1781 18.4488C6.02673 18.4245 2.98748 18.7716 2.98748 18.7716C3.04336 18.3609 3.16754 18.1138 3.80705 18.0138C5.23044 17.7955 7.91267 17.7288 7.91267 17.7288C8.07721 17.7167 8.24795 17.7198 8.41093 17.6955C8.49601 17.6898 8.57903 17.6673 8.65503 17.6296C8.73104 17.5918 8.79848 17.5395 8.85332 17.4757C9.03648 17.2135 8.70896 17.0104 8.5258 16.9089C8.34264 16.8073 8.10515 16.7285 7.91422 16.6057C7.46253 16.3147 7.01083 16.0252 6.79197 15.5205C6.68067 15.2146 6.63625 14.8893 6.66158 14.5656V7.38889C6.83244 7.07211 7.09474 6.81124 7.41596 6.63862V9.12737C7.41596 10.0903 7.41596 11.0528 7.41596 12.0147C7.41596 12.1511 7.41596 12.286 7.41596 12.4225V14.3686C7.42992 14.6534 7.51412 14.9307 7.66141 15.1769C7.80869 15.4231 8.01471 15.631 8.26192 15.7827C8.56 15.9383 8.88017 16.0497 9.21188 16.1131C9.56096 16.1735 9.89062 16.3132 10.1743 16.5209C10.3845 16.6819 10.5315 16.9089 10.5903 17.1635C10.6452 17.4071 10.6094 17.6618 10.4894 17.8819H10.4956ZM15.7622 18.9277C15.7628 18.9431 15.7587 18.9582 15.7505 18.9713C15.7424 18.9844 15.7305 18.9948 15.7163 19.0014C15.7021 19.008 15.6863 19.0105 15.6708 19.0084C15.6552 19.0064 15.6406 18.9999 15.6288 18.9899C14.1619 17.7864 12.4777 17.1423 11.8258 17.0195C11.7428 17.0039 11.6644 16.9705 11.5963 16.9218C11.5281 16.873 11.4718 16.8101 11.4316 16.7376C11.1444 16.2162 10.598 15.7933 10.0346 15.4781C9.59994 15.2325 8.28365 14.7399 8.28365 14.7399C10.3388 13.0848 14.3451 15.1567 14.7564 15.3765L14.8263 15.4144V2.86004C15.1055 2.58519 15.4183 2.34491 15.7576 2.14464V2.92673L15.7622 18.9277ZM71.7974 28.4765V39.2864C71.7981 40.882 71.6762 42.4754 71.4326 44.0532C69.7252 57.4715 58.8783 64.6406 45.7806 72.1235H45.7729L44.5683 72.8117L44.4504 72.8814C44.4124 72.9037 44.3689 72.9155 44.3246 72.9155C44.2803 72.9155 44.2369 72.9037 44.1989 72.8814L44.0732 72.8101C29.0989 64.1981 16.8597 56.0755 16.8597 39.2818V1.67478C16.8596 1.63997 16.8643 1.60531 16.8736 1.57171C16.8861 1.50834 16.9103 1.44772 16.945 1.39286C17.0057 1.30311 17.0936 1.23419 17.1965 1.19582C17.2628 1.17071 17.3334 1.15835 17.4045 1.15944H71.2665C71.3328 1.15957 71.3986 1.17138 71.4605 1.1943C71.5636 1.23311 71.6519 1.30189 71.7136 1.39134C71.7472 1.4466 71.7708 1.5071 71.7834 1.57019C71.7927 1.60379 71.7974 1.63845 71.7974 1.67326V28.4735V28.4765ZM77.7067 6.71138C77.6211 6.54103 77.4698 6.41076 77.286 6.34913C76.9539 6.24303 76.9663 6.58861 76.9678 7.21458V7.5253L75.5118 6.89781V6.55829C75.5118 5.89594 75.5895 5.45488 75.9278 5.23511C76.2662 5.01533 76.7552 5.03049 77.3962 5.28361C77.9429 5.48536 78.4201 5.83367 78.7731 6.2885C79.099 6.7235 79.1735 7.32977 79.1751 7.93301C79.191 8.2664 79.1261 8.59874 78.9857 8.90305C78.8941 9.20618 78.0792 9.76699 78.0792 9.76699C77.5639 10.0701 77.2814 10.4399 77.2286 10.6764L79.2775 11.4691V12.665L75.4187 11.0523V10.831C75.4187 9.92159 75.8658 9.24559 76.7645 8.62719L77.4164 8.17249C77.6927 7.97949 77.8298 7.65868 77.8278 7.21003C77.8267 7.03494 77.782 6.86273 77.6974 6.70835L77.7067 6.71138ZM77.241 16.733C77.2009 16.8054 77.1449 16.8682 77.077 16.917C77.0091 16.9657 76.931 16.9992 76.8483 17.015C76.1964 17.1453 74.5107 17.7895 73.0454 18.9853C73.0333 18.9952 73.0187 19.0014 73.0031 19.0034C72.9875 19.0054 72.9717 19.0029 72.9575 18.9964C72.9433 18.9899 72.9313 18.9795 72.923 18.9665C72.9146 18.9536 72.9102 18.9385 72.9103 18.9232V2.92673V2.14464C73.2499 2.34448 73.5628 2.58479 73.8417 2.86004V15.4068L73.9115 15.3689C74.3228 15.1492 78.3291 13.0772 80.3843 14.7324C80.3843 14.7324 79.068 15.2249 78.6334 15.4705C78.0621 15.7857 77.5158 16.2086 77.2286 16.73L77.241 16.733ZM80.5007 18.4473C80.1519 18.4536 79.8031 18.4394 79.456 18.4048C79.2327 18.3824 79.0125 18.3361 78.7994 18.2669C78.7405 18.2502 78.6132 18.2017 78.5728 18.1836C78.4145 18.1234 78.2786 18.0177 78.1832 17.8804C78.0648 17.6597 78.0306 17.405 78.087 17.162C78.1458 16.9074 78.2927 16.6804 78.503 16.5193C78.8802 16.2571 79.0276 16.2238 79.4653 16.1116C79.7966 16.0484 80.1163 15.9371 80.4138 15.7812C80.6614 15.6298 80.8679 15.4221 81.0155 15.1758C81.1631 14.9296 81.2474 14.6521 81.2613 14.3671V12.4225C81.2613 12.286 81.2613 12.1511 81.2613 12.0147C81.2613 11.0518 81.2613 10.0893 81.2613 9.12737V6.63711C81.5825 6.80973 81.8448 7.07059 82.0156 7.38737V14.5611C82.041 14.8848 81.9966 15.2101 81.8853 15.516C81.6664 16.0207 81.2147 16.3102 80.763 16.6012C80.5721 16.724 80.3501 16.7937 80.1514 16.9043C79.9527 17.015 79.6408 17.2075 79.8239 17.4712C79.8788 17.5349 79.9462 17.5873 80.0222 17.625C80.0982 17.6628 80.1812 17.6852 80.2663 17.691C80.4215 17.7152 80.6 17.7122 80.7646 17.7243C80.7646 17.7243 83.4452 17.791 84.8702 18.0092C85.5097 18.1078 85.6339 18.3548 85.6882 18.7671C85.682 18.7671 82.6443 18.42 80.4929 18.4382L80.5007 18.4473ZM87.093 15.0673C87.0743 15.8252 86.9191 16.3248 86.6273 16.5663C86.3044 16.8391 85.7834 16.8124 85.0642 16.486C84.5761 16.2808 84.1521 15.9535 83.8348 15.5372C83.5941 15.1862 83.4268 14.7921 83.3428 14.3777C83.3078 14.1771 83.2855 13.9746 83.276 13.7714L83.2605 13.1409L84.6699 13.7472C84.6824 13.9548 84.7305 14.5868 84.7429 14.793C84.7941 15.0643 84.8609 15.2583 85.0658 15.375C85.4414 15.5857 85.5485 15.3098 85.5671 14.5444C85.5825 14.2694 85.5747 13.9936 85.5438 13.7199C85.4724 13.3516 85.3886 13.1136 85.1341 12.9878C84.8236 12.8484 84.6544 12.9332 84.6172 13.2409L83.3599 12.6695L83.6113 9.16223L86.9284 10.6688L86.8989 11.851L84.6684 10.8371L84.5784 11.8601C84.7398 11.7945 84.9142 11.765 85.0888 11.774C85.2635 11.7829 85.4338 11.8299 85.5873 11.9117C86.1927 12.186 86.6133 12.7953 86.8524 13.3879C87.0404 13.9267 87.1195 14.4961 87.0852 15.0643L87.093 15.0673Z" fill="#FAFAFA"/>
<path d="M45.2294 73.521L45.1523 73.5656L45.2294 73.521Z" fill="#FAFAFA"/>
<path d="M70.7282 40.9354H59.2666L59.2759 40.8869C59.3334 40.5929 59.3846 40.3004 59.4172 40.0078H70.7003C70.7423 40.0055 70.7818 39.9876 70.8106 39.9577C70.8395 39.9278 70.8556 39.8883 70.8555 39.8472V14.7521C70.8556 14.711 70.8395 14.6715 70.8106 14.6416C70.7818 14.6117 70.7423 14.5938 70.7003 14.5914H44.9769C44.9335 14.5918 44.8921 14.6089 44.8615 14.639C44.831 14.6691 44.8139 14.7097 44.8139 14.7521V25.5043C44.7759 25.3711 44.7239 25.2421 44.6587 25.1193C44.5407 24.892 44.3048 24.6646 43.8469 24.5904V21.1892H38.0664V25.8741C37.7353 26.0358 37.4119 26.2096 37.0963 26.3955V21.1892H31.3096V26.8381H36.3714C35.9057 27.1412 35.44 27.4565 34.9899 27.7854H31.3096V31.8095C30.8674 32.6239 30.5326 33.4897 30.3131 34.3862H24.5543V40.0351H29.2979C29.3501 40.3156 29.4259 40.5914 29.5245 40.8597C29.5339 40.8869 29.5447 40.9127 29.554 40.94H17.99C17.9677 40.9397 17.9455 40.944 17.9249 40.9525C17.9043 40.9609 17.8857 40.9734 17.8703 40.9892C17.8549 41.005 17.8429 41.0237 17.8352 41.0442C17.8275 41.0646 17.8242 41.0864 17.8255 41.1082C18.6124 55.9103 29.8614 63.4448 43.614 71.3081C43.639 71.3222 43.6672 71.3296 43.696 71.3296C43.7248 71.3297 43.7531 71.3224 43.778 71.3084C43.803 71.2945 43.8238 71.2744 43.8383 71.2501C43.8529 71.2258 43.8606 71.1983 43.8608 71.1702V53.314C44.005 53.2538 44.1459 53.1866 44.283 53.1124C44.3793 53.0522 44.4838 53.0057 44.5935 52.9745C44.6622 52.9602 44.7338 52.9671 44.7984 52.9942V71.1672C44.7983 71.1952 44.8058 71.2228 44.8201 71.2471C44.8345 71.2714 44.8551 71.2916 44.88 71.3056C44.9049 71.3196 44.9332 71.3269 44.9619 71.3269C44.9906 71.3268 45.0188 71.3192 45.0436 71.3051C58.818 63.4342 70.0996 55.9134 70.8865 41.1022C70.8887 41.0808 70.8863 41.0592 70.8793 41.0388C70.8723 41.0184 70.8609 40.9997 70.8459 40.9839C70.8309 40.9681 70.8127 40.9557 70.7924 40.9473C70.7721 40.9389 70.7502 40.9349 70.7282 40.9354ZM29.3802 37.5843C29.3196 37.9041 29.2824 38.2284 29.2451 38.5498C29.2255 38.7305 29.2151 38.9121 29.2141 39.0939H25.5152V35.3199H29.3802V37.5843ZM44.8139 26.8866C45.0405 26.6532 45.1709 26.5289 45.1709 26.5289L45.5838 26.1364C45.643 26.072 45.7063 26.0112 45.7732 25.9545C45.9228 25.8251 46.0899 25.7165 46.2699 25.6316C46.6948 25.4419 47.1703 25.3889 47.6281 25.4801C48.1672 25.5582 48.6758 25.7736 49.1027 26.1045C49.21 26.1814 49.2977 26.2816 49.3588 26.397C49.4799 26.6608 49.2781 26.9169 49.0918 27.0882C48.8714 27.2903 48.6541 27.4964 48.4399 27.7066C48.0177 28.1219 47.6089 28.5498 47.2136 28.9904C46.72 29.5406 46.2419 30.1014 45.7732 30.6697C45.4627 31.0517 45.1523 31.4372 44.8418 31.8262C44.8325 31.8383 44.8248 31.8505 44.8155 31.8611C44.2287 32.6098 43.6596 33.3677 43.108 34.1346C42.8845 34.4468 42.6625 34.7621 42.4452 35.0789C42.2062 35.429 41.725 35.7215 41.2826 35.5684C41.064 35.4608 40.8701 35.3107 40.7129 35.1274C40.508 34.908 40.3162 34.6772 40.1386 34.4362C39.9916 34.2736 39.8792 34.084 39.808 33.8784C39.7714 33.7214 39.7691 33.5586 39.8011 33.4006C39.8332 33.2426 39.899 33.093 39.9943 32.9615C41.3977 30.7903 43.0116 28.756 44.8139 26.8866ZM53.0562 30.5924C51.1873 32.6083 49.3174 34.6236 47.4465 36.6385C47.0631 37.0508 46.6704 37.4751 46.1519 37.7161C46.0305 37.7732 45.9037 37.8183 45.7732 37.851C45.4598 37.9317 45.1317 37.9416 44.8139 37.8798C44.5983 37.8379 44.3915 37.7605 44.2023 37.651C43.9119 37.4799 43.6759 37.2334 43.5205 36.939C43.3651 36.6447 43.2965 36.3139 43.3222 35.9837C43.375 35.4987 43.642 35.0637 43.9121 34.653C44.2028 34.2154 44.5035 33.7845 44.8139 33.3601C44.9365 33.1934 45.0592 33.0281 45.1849 32.8645C45.3794 32.6169 45.5755 32.3724 45.7732 32.1309C46.2466 31.5504 46.7309 30.9789 47.2447 30.4288L47.3782 30.2878C48.2239 29.3996 49.1388 28.5766 50.1147 27.8263C50.343 27.6378 50.5995 27.4844 50.8753 27.3716C51.7166 27.0594 52.4151 27.6748 52.9646 28.2265C53.3185 28.5766 53.6973 28.9843 53.6864 29.4754C53.6771 29.9028 53.3573 30.2681 53.0562 30.5924ZM54.7636 30.353C54.7888 30.3249 54.8232 30.3063 54.8609 30.3005C54.8987 30.2947 54.9373 30.302 54.9701 30.3211C55.2064 30.4546 55.4312 30.6066 55.6422 30.7758C56.0384 31.0925 56.3971 31.4514 56.7117 31.8459C56.9825 32.1853 57.2141 32.5528 57.4024 32.9418C57.5668 33.2798 57.6973 33.6325 57.792 33.9951C57.9387 34.5491 58.0024 35.1209 57.9814 35.6927C57.9757 35.8616 57.9607 36.0301 57.9364 36.1974C57.9337 36.2161 57.926 36.2338 57.914 36.2487C57.9021 36.2635 57.8864 36.2751 57.8685 36.2821C57.8506 36.2892 57.831 36.2915 57.8119 36.2889C57.7928 36.2863 57.7747 36.2788 57.7594 36.2671L53.1028 32.6568C53.0697 32.631 53.0424 32.599 53.0225 32.5625C53.0026 32.5261 52.9905 32.486 52.987 32.4449C52.9835 32.4037 52.9887 32.3623 53.0022 32.3232C53.0157 32.284 53.0372 32.248 53.0655 32.2173L54.7636 30.353ZM40.2799 39.8563C40.2799 39.8563 39.9849 40.1503 39.8918 40.9354C39.8678 41.1473 39.859 41.3605 39.8654 41.5735C39.8659 41.6204 39.8559 41.6668 39.836 41.7095C39.8162 41.7522 39.787 41.7901 39.7506 41.8206C39.6439 41.916 39.5141 41.9833 39.3734 42.0161C38.8736 42.1828 38.0633 42.5496 37.9903 42.583C36.7393 43.2074 34.8533 44.3442 33.3414 45.8462L33.3321 45.8538C33.1429 46.0002 32.902 46.0675 32.6621 46.0411C32.4222 46.0147 32.2027 45.8967 32.0516 45.7129C31.4307 45.046 31.173 44.1532 31.0271 43.1817C30.9262 42.5133 31.5207 41.9797 31.724 41.8176L31.7861 41.7706H31.7939C31.8358 41.7312 32.1757 41.4068 32.7594 40.94C33.981 39.9609 36.2689 38.3482 39.1405 37.3615C39.215 37.3312 41.385 36.4596 43.6854 38.8484C43.6968 38.8598 43.7045 38.8742 43.7075 38.8899C43.7104 38.9056 43.7085 38.9218 43.702 38.9364C43.6955 38.951 43.6847 38.9634 43.671 38.972C43.6573 38.9806 43.6412 38.9851 43.6249 38.9848C42.9512 38.9696 41.1677 38.8211 40.2814 39.8563H40.2799ZM40.6897 44.2214C40.4894 44.4761 39.0427 46.1827 38.3396 50.3811C38.3396 50.3811 38.158 51.8135 36.9643 51.0981C36.4597 50.8136 35.9711 50.503 35.5006 50.1674C35.0318 49.8072 34.6119 49.39 34.251 48.9261L34.1533 48.7973C33.9428 48.5479 33.7931 48.2551 33.7155 47.9409C33.5883 47.2679 34.2666 46.7178 34.709 46.2812C35.2297 45.7718 35.7959 45.3087 36.4009 44.8974C37.3059 44.2908 38.2649 43.7648 39.2663 43.3257L39.5038 43.2211C39.5038 43.2211 40.0269 43.0059 40.3482 43.3984L40.6493 43.7319C40.7148 43.7954 40.7548 43.8797 40.7619 43.9696C40.769 44.0595 40.7428 44.1488 40.6881 44.2214H40.6897ZM39.0257 22.1259H42.8907V24.5949C42.2465 24.647 41.6055 24.7325 40.9706 24.8511C40.3051 24.9901 39.654 25.1884 39.0257 25.4437V22.1259ZM37.0963 30.3105C37.1599 30.0589 37.2313 29.7982 37.3105 29.536C37.5485 28.7235 37.85 27.93 38.2123 27.1625L38.2325 27.12C38.232 27.1165 38.232 27.1129 38.2325 27.1094C38.2853 27.0144 38.3488 26.9254 38.4219 26.8442C38.6768 26.573 38.9901 26.3602 39.3392 26.2212C39.6279 26.0975 39.9245 25.9922 40.2271 25.906C40.583 25.8022 40.9461 25.7237 41.3136 25.671C41.8337 25.5689 42.3609 25.5046 42.8907 25.4785C43.0226 25.4785 43.1546 25.4695 43.285 25.4785C43.4207 25.4752 43.5566 25.4803 43.6916 25.4937C44.0471 25.5437 43.3238 26.4425 43.24 26.5547C43.1561 26.6668 43.0847 26.7532 43.0056 26.8578C42.8581 27.0412 42.7075 27.2216 42.5492 27.3959C42.3071 27.6611 42.0835 27.9339 41.8616 28.2174C41.2199 29.0161 40.6279 29.8517 40.0889 30.7198C39.7771 31.2174 39.5052 31.7378 39.2756 32.2764L39.1204 32.7083L37.1025 32.8978L36.6197 32.9433C36.7201 32.0546 36.8793 31.1731 37.0963 30.3045V30.3105ZM32.2704 28.7297H33.7885C33.2295 29.2178 32.721 29.7585 32.2704 30.3439V28.7297ZM31.1637 34.4499C31.2429 34.1067 31.3466 33.7694 31.4741 33.4404C31.6895 32.8923 31.9539 32.3639 32.2642 31.8611C33.0023 30.6754 33.9365 29.6173 35.0287 28.7297C35.4227 28.4028 35.8336 28.0957 36.2596 27.8097C36.2728 27.8006 36.2884 27.7955 36.3044 27.795C36.3205 27.7945 36.3364 27.7986 36.3501 27.8069C36.3638 27.8151 36.3748 27.8271 36.3816 27.8413C36.3884 27.8555 36.3908 27.8714 36.3885 27.887C36.3885 27.9112 36.3807 27.94 36.3776 27.9673C36.2674 28.2265 36.1665 28.4857 36.078 28.7251C35.825 29.4117 35.6667 29.9619 35.6667 29.9619C35.4191 30.7953 35.2211 31.642 35.0737 32.4977C35.0116 32.8478 34.9682 33.1418 34.9402 33.3525L34.7121 33.4343L31.3794 34.6302C31.3517 34.6393 31.3221 34.6412 31.2934 34.6355C31.2648 34.6299 31.2382 34.6169 31.2163 34.598C31.1944 34.5791 31.178 34.5549 31.1688 34.5278C31.1595 34.5007 31.1578 34.4717 31.1637 34.4438V34.4499ZM30.3053 37.7737C30.3053 37.6752 30.3239 37.5767 30.3395 37.4782C30.3752 37.2306 30.4523 36.9905 30.5676 36.7673C30.6339 36.6428 30.7192 36.5288 30.8206 36.4293C31.0525 36.2378 31.3146 36.0842 31.5968 35.9746C31.8265 35.8685 32.0531 35.7594 32.2828 35.6578C32.5126 35.5563 32.7237 35.4851 32.9518 35.4078C33.7854 35.1274 34.622 34.8636 35.4695 34.6257C35.9895 34.4741 36.5126 34.3407 37.0342 34.1998C37.4641 34.0831 38.0897 33.936 38.4964 34.1998C38.5366 34.2287 38.5731 34.2623 38.605 34.2998L38.678 34.3832L38.737 34.4529C38.7618 34.4817 38.7866 34.512 38.8099 34.5423L38.8953 34.6514L38.99 34.7788L39.0909 34.9212C39.1266 34.9728 39.1607 35.0258 39.1949 35.0728C39.229 35.1198 39.2678 35.1865 39.302 35.2441C39.3361 35.3017 39.3734 35.3653 39.4075 35.4275C39.4417 35.4896 39.4774 35.5563 39.51 35.6215C39.5426 35.6866 39.5767 35.7579 39.6062 35.8261C39.6263 35.8654 39.6375 35.9086 39.6388 35.9526C39.6401 35.9965 39.6317 36.0403 39.614 36.0807C39.5379 36.255 39.3144 36.3111 39.1483 36.3475C38.7336 36.4377 38.3263 36.5577 37.9298 36.7067L36.9814 37.078C36.5763 37.2387 36.1742 37.4039 35.78 37.5843C35.1701 37.8589 34.579 38.1718 34.0105 38.521C33.5964 38.7769 33.1988 39.0573 32.8199 39.3607C32.5358 39.5895 32.2642 39.832 31.9895 40.073C31.7734 40.2706 31.5436 40.4534 31.3018 40.6202C30.4093 41.2083 30.3286 40.267 30.3286 40.267C30.3286 40.267 30.3193 40.1776 30.3084 40.0185C30.2549 39.2691 30.2539 38.5171 30.3053 37.7677V37.7737ZM42.886 68.2389V70.0168C36.4769 66.314 30.6825 62.6309 26.3347 58.1702C25.9663 57.7923 25.6093 57.4093 25.2637 57.0213C21.6393 52.9517 19.21 48.2213 18.5379 42.2753C18.5286 42.1813 18.5162 42.0843 18.5069 41.9873V41.9797C18.5089 41.9361 18.5284 41.8949 18.5612 41.8651C18.594 41.8353 18.6375 41.8194 18.6823 41.8206H30.3845C30.4306 41.9811 30.4128 42.1528 30.3348 42.3011C30.1692 42.6482 30.1037 43.0328 30.1454 43.4136C30.2024 43.8485 30.3151 44.2747 30.4807 44.6822C30.6381 45.1136 30.8323 45.5314 31.0612 45.9311C31.2273 46.2206 31.3717 46.4843 31.6651 46.6647C32.005 46.8754 32.376 46.9133 32.7516 46.9678C32.7781 46.97 32.8036 46.9789 32.8256 46.9935C32.8476 47.0081 32.8655 47.0279 32.8773 47.0512C32.8898 47.0928 32.8898 47.1369 32.8773 47.1785C32.8156 47.4991 32.7963 47.8262 32.8199 48.1516C32.8627 48.5374 33.013 48.9044 33.2545 49.2126C33.2545 49.2126 34.7493 51.0662 36.7672 52.0514C37.0031 52.1522 37.2579 52.2038 37.5154 52.203C37.7295 52.2124 37.9427 52.1702 38.1363 52.0802C38.2423 52.0287 38.3372 51.9577 38.4157 51.8711C38.4808 51.7983 38.6035 51.6528 38.6609 51.8332C38.6712 51.8769 38.6754 51.9217 38.6733 51.9665C38.6733 52.6395 39.3563 53.0775 39.9151 53.3307C40.1962 53.4543 40.4903 53.5479 40.7921 53.6095C41.0803 53.6586 41.372 53.6859 41.6645 53.6914C42.0703 53.7152 42.4777 53.6888 42.8767 53.6126L42.886 68.2389ZM43.6373 52.0575C43.6373 52.0575 43.6032 52.4955 42.8892 52.7016C42.5337 52.8047 42.009 52.8532 41.236 52.7547C38.8456 52.4607 39.5084 50.6555 39.5084 50.6555C40.3761 46.7299 41.6738 44.9474 41.9687 44.5806C41.9859 44.5571 42.0097 44.5389 42.0372 44.5282C42.0647 44.5174 42.0948 44.5146 42.1239 44.52L42.8907 44.6307L43.7242 44.7504C43.7643 44.756 43.8008 44.7757 43.8269 44.8059C43.8529 44.8361 43.8667 44.8746 43.8655 44.9141L43.6373 52.0575ZM44.8061 43.6682C44.6789 43.6682 44.5531 43.6591 44.4305 43.653C44.2287 43.6409 44.0409 43.6273 43.8639 43.6091C43.5352 43.5805 43.2093 43.5268 42.8892 43.4484C42.2725 43.3213 41.7305 42.9653 41.3773 42.4557C41.2342 42.2637 41.1265 42.0488 41.0591 41.8206C40.9743 41.5254 41.0048 41.21 41.1445 40.9354C41.2362 40.7583 41.3556 40.5963 41.4984 40.455C42.0603 39.8866 42.9435 39.7684 43.361 40.0003C43.7786 40.2322 44.5066 40.2943 44.5066 40.2943C44.5066 40.2943 45.9331 40.3731 47.982 40.3534C48.416 40.3405 48.8381 40.4933 49.1586 40.7793C49.2082 40.8266 49.2544 40.8773 49.2967 40.9309C49.6258 41.3462 49.722 41.9479 49.6522 42.4572C49.6125 42.7202 49.484 42.9627 49.2872 43.1464C49.0904 43.33 48.8365 43.4443 48.5656 43.4712C47.3167 43.6117 46.0602 43.6775 44.803 43.6682H44.8061ZM49.9409 51.4633C49.6568 51.8589 49.0592 52.0802 48.6013 52.2212C48.066 52.3771 47.5138 52.4708 46.956 52.5001C46.4794 52.5334 45.902 52.5986 45.5233 52.2454C45.3888 52.123 45.3012 51.9593 45.2749 51.7816C45.0126 49.6233 45.2951 47.1421 45.2951 47.1421L45.5 45.1718C45.5025 45.1324 45.5197 45.0953 45.5483 45.0674C45.5769 45.0395 45.6149 45.0227 45.6552 45.0202L47.8454 45.0035C47.8788 45.0029 47.9116 45.0123 47.9394 45.0304C47.9671 45.0486 47.9885 45.0746 48.0006 45.1051L50.0883 50.219C50.1986 50.6373 50.197 51.1026 49.9378 51.4633H49.9409ZM54.3352 48.5169C54.0325 49.1838 53.0282 49.8704 53.0282 49.8704C52.5828 50.1432 52.0178 50.2781 51.5878 49.8992C51.4306 49.7491 51.3019 49.5731 51.2075 49.3793C51.1733 49.3141 51.1392 49.2459 51.1066 49.1792C50.9514 48.8579 50.7884 48.5426 50.6534 48.2092C50.5183 47.8757 50.4081 47.5711 50.2994 47.2467C50.1085 46.6799 49.944 46.1054 49.795 45.5279C49.7407 45.3142 49.6863 45.1005 49.6398 44.8853C49.6324 44.8522 49.6359 44.8176 49.6498 44.7866C49.6638 44.7556 49.6874 44.7296 49.7174 44.7125C50.1252 44.4745 50.5139 44.2064 50.88 43.9107C50.9129 43.8844 50.955 43.8715 50.9975 43.8746C51.0399 43.8777 51.0796 43.8966 51.1082 43.9274L51.4838 44.3397C51.4838 44.3397 53.3108 46.3403 54.0744 47.2028C54.7621 47.994 54.3321 48.5169 54.3321 48.5169H54.3352ZM56.7846 45.9084C56.5631 46.2537 56.2728 46.5522 55.9309 46.786C55.8745 46.8262 55.805 46.8448 55.7355 46.8384C55.666 46.832 55.6014 46.8009 55.5537 46.7511L55.057 46.2221L51.3224 42.2662C51.2972 42.2385 51.2824 42.2032 51.2804 42.1662C51.2711 42.0146 51.2059 41.5599 50.7884 40.9354C50.6489 40.7251 50.4932 40.5255 50.3227 40.3383C50.2117 40.217 50.089 40.1063 49.9564 40.0078C49.9409 39.9957 49.9254 39.9806 49.9083 39.9684C49.6051 39.75 49.2546 39.6022 48.8838 39.5365C48.713 39.5074 48.5386 39.5049 48.3669 39.5289C48.1846 39.5432 48.0036 39.489 47.8609 39.3773C47.78 39.3172 47.7056 39.2492 47.6389 39.1742L47.5365 39.059C47.4446 38.9755 47.3748 38.8715 47.3332 38.7559C47.2416 38.4376 47.4884 38.2057 47.6731 37.9768C47.9059 37.6858 48.1465 37.4024 48.3995 37.1311C48.6525 36.8598 48.9801 36.6764 49.3448 36.7385C49.5856 36.7817 49.8043 36.9029 49.9657 37.0826L52.041 39.1727L52.8715 40.0094L53.7919 40.937L56.3935 43.556L56.5952 43.7819C57.5049 44.7989 56.7815 45.9084 56.7815 45.9084H56.7846ZM58.4812 40.0078C58.4657 40.2625 58.4377 40.5793 58.3896 40.9354C58.3139 41.504 58.1998 42.067 58.0481 42.6209C57.9922 42.8664 57.8712 43.1695 57.6228 43.1635C57.3388 43.1635 57.0997 42.9543 56.9057 42.7709C56.4928 42.3814 56.0908 41.9813 55.6872 41.5826C55.4699 41.3674 55.2541 41.1507 55.0353 40.9354L54.1039 40.0078L53.8664 39.7714L53.2673 39.1651L52.01 37.9086C51.5474 37.4448 51.0818 36.9825 50.613 36.5218C50.4329 36.346 50.1737 36.1717 50.0589 35.9489C50.0097 35.8477 49.988 35.7358 49.9959 35.6241C50.0038 35.5123 50.041 35.4044 50.1039 35.3108C50.12 35.2836 50.1376 35.2573 50.1566 35.2319C50.1963 35.1831 50.2394 35.1371 50.2855 35.094L50.5835 34.7757L51.268 34.0421C51.3679 33.9169 51.4814 33.8025 51.6064 33.7011C51.6998 33.6439 51.8067 33.611 51.9169 33.6056C52.3298 33.5799 52.724 33.8512 53.0251 34.0937C54.1909 35.0349 57.5142 37.5464 57.5142 37.5464C57.5142 37.5464 58.4455 38.1223 58.5045 39.1651C58.5045 39.2167 58.5045 39.2667 58.5045 39.3167C58.5045 39.3167 58.506 39.5835 58.4781 40.0078H58.4812ZM58.8103 37.6464C58.7918 37.5173 58.7997 37.386 58.8335 37.2599C58.846 37.1083 58.8599 36.9477 58.8661 36.7901C58.8817 36.4763 58.8817 36.161 58.8661 35.8473C58.8344 35.0159 58.6898 34.1923 58.4362 33.398C58.145 32.4672 57.6503 31.6093 56.9864 30.8835C56.4731 30.3423 55.8655 29.8943 55.192 29.5603C55.0508 29.489 54.8909 29.4618 54.7512 29.3845C54.6356 29.3058 54.5486 29.1933 54.5029 29.0631C54.4365 28.9125 54.3602 28.7662 54.2747 28.6251C53.6988 27.6611 52.8047 26.6092 51.5769 26.5289C51.0881 26.5086 50.6035 26.6248 50.1799 26.8639C50.1799 26.8639 50.7853 24.7738 47.0413 24.6055C46.5898 24.5991 46.1469 24.727 45.7716 24.9723V15.5872C45.7705 15.566 45.774 15.5449 45.7818 15.5251C45.7896 15.5053 45.8015 15.4873 45.8169 15.4723C45.8322 15.4573 45.8507 15.4456 45.8709 15.438C45.8912 15.4304 45.9129 15.427 45.9346 15.4281H69.8388C69.8603 15.4279 69.8817 15.4319 69.9016 15.4398C69.9216 15.4477 69.9397 15.4594 69.955 15.4742C69.9703 15.489 69.9825 15.5066 69.9908 15.526C69.9991 15.5454 70.0033 15.5662 70.0033 15.5872V39.012C70.0033 39.0331 69.9991 39.0539 69.9908 39.0733C69.9825 39.0927 69.9703 39.1103 69.955 39.1251C69.9397 39.1399 69.9216 39.1516 69.9016 39.1595C69.8817 39.1674 69.8603 39.1714 69.8388 39.1712H59.4389C59.4389 39.1075 59.4343 39.0439 59.4249 38.9802C59.4013 38.7501 59.3492 38.5236 59.2697 38.3057C59.1674 38.1084 59.0355 37.9271 58.8786 37.7677C58.8488 37.7309 58.8247 37.6901 58.8072 37.6464H58.8103Z" fill="#FAFAFA"/>
<path d="M60.8918 7.60264C60.8918 6.93574 60.5177 6.60229 59.7695 6.60229H58.7373V8.60299H59.7695C60.5177 8.60299 60.8918 8.26954 60.8918 7.60264Z" fill="#FAFAFA"/>
<path d="M31.3493 11.2993C32.7013 11.2993 32.9931 10.4551 32.9931 8.76664C32.9931 7.17973 32.4451 6.4325 31.3493 6.4325C30.2534 6.4325 29.707 7.41162 29.707 8.76664C29.707 10.4551 30.2544 11.2993 31.3493 11.2993Z" fill="#FAFAFA"/>
<path d="M70.863 13.682V2.06885H17.7988V13.6789H70.863V13.682ZM63.7445 5.0805H69.2487V6.59618H65.7485V7.9512H68.9755V9.46688H65.7485V11.1341H69.2487V12.6498H63.7383L63.7445 5.0805ZM56.7332 5.0805H60.0596C62.0174 5.0805 62.9959 5.9212 62.9948 7.60259C62.9948 9.285 61.3091 10.1247 60.0596 10.1247H58.7371V12.6665H56.7332V5.0805ZM50.4715 5.0805H55.9834V6.59618H52.4754V7.96029H55.7025V9.47597H52.4754V11.1432H55.9834V12.6589H50.4669L50.4715 5.0805ZM42.8796 5.0805H49.7233V6.51433H47.1886V12.665H45.1893V6.51433H42.8796V5.0805ZM35.9272 11.1432L39.7348 6.51433H36.129V5.0805H42.1299V6.68561L38.4527 11.1432H42.3705V12.6589H35.9272V11.1432ZM31.8728 2.93127H33.5026V4.26355H31.8728V2.93127ZM29.2697 2.93127H30.9089V4.26355H29.2697V2.93127ZM28.5805 5.98688C29.2356 5.26845 30.1607 4.90974 31.3559 4.91075C32.5511 4.91176 33.4731 5.27047 34.122 5.98688C34.777 6.69622 35.2846 7.43587 35.2846 8.73329C35.2846 10.0307 34.9571 11.0386 34.302 11.7556C33.647 12.4725 32.5527 12.8165 31.3528 12.8165C30.1529 12.8165 29.1425 12.4619 28.4874 11.7556C27.8324 11.0492 27.5157 10.2065 27.5157 8.90911C27.5126 7.35554 27.9271 6.69622 28.5805 5.98688ZM19.4085 8.73783C19.5637 5.20327 22.6278 5.03958 23.7547 5.0032C24.8304 4.96683 26.083 5.38061 26.6511 5.6701C26.6511 6.01871 26.6511 6.41733 26.6605 7.44648H26.4323C25.6965 6.61134 24.6131 6.34913 23.7174 6.36883C22.8575 6.38702 21.5443 6.99026 21.5443 8.85303C21.5443 9.65027 21.6809 10.158 22.0426 10.6006C22.2207 10.8348 22.4511 11.0264 22.7162 11.1609C22.9814 11.2953 23.2744 11.3691 23.5731 11.3766C23.9513 11.423 24.335 11.4035 24.7062 11.319V9.89127L23.1478 9.86702V8.55292H26.6248V12.3088C26.0303 12.4179 25.4326 12.6119 24.8319 12.7241C19.5777 13.3137 19.3526 9.96553 19.4085 8.73783Z" fill="#FAFAFA"/>
<path d="M23.584 14.5914H17.7988V20.2419H23.584V14.5914ZM22.6231 19.3037H18.7597V15.5296H22.6231V19.3037Z" fill="#FAFAFA"/>
<path d="M23.584 21.1892H17.7988V26.8381H23.584V21.1892Z" fill="#FAFAFA"/>
<path d="M23.584 27.7854H17.7988V33.4343H23.584V27.7854ZM22.6231 32.4961H18.7597V28.7236H22.6231V32.4961Z" fill="#FAFAFA"/>
<path d="M23.584 34.3817H17.7988V40.0306H23.584V34.3817Z" fill="#FAFAFA"/>
<path d="M30.3388 27.7854H24.5537V33.4343H30.3388V27.7854Z" fill="#FAFAFA"/>
<path d="M30.3388 21.1892H24.5537V26.8381H30.3388V21.1892ZM29.3796 25.8999H25.5145V22.1259H29.3796V25.8999Z" fill="#FAFAFA"/>
<path d="M30.3388 14.593H24.5537V20.242H30.3388V14.593Z" fill="#FAFAFA"/>
<path d="M37.0962 20.2419V14.5914H31.3096V20.2419H37.0962ZM32.2704 15.5296H36.1354V19.3037H32.2704V15.5296Z" fill="#FAFAFA"/>
<path d="M43.8515 14.593H38.0664V20.242H43.8515V14.593Z" fill="#FAFAFA"/>
<path d="M48.1729 42.5906C48.1727 42.6496 48.188 42.7077 48.2175 42.7593C48.247 42.8108 48.2895 42.8541 48.341 42.885C48.3925 42.9158 48.4513 42.9332 48.5117 42.9355C48.5722 42.9377 48.6321 42.9248 48.6859 42.8978C48.7397 42.8709 48.7855 42.8309 48.8189 42.7817C48.8523 42.7325 48.8722 42.6758 48.8766 42.6169C48.8811 42.558 48.8699 42.4991 48.8443 42.4456C48.8186 42.3922 48.7793 42.3461 48.7301 42.3117L48.7844 41.6736C48.8532 41.6404 48.9089 41.5861 48.943 41.5191C48.9772 41.452 48.9879 41.3759 48.9735 41.3023C48.9591 41.2287 48.9204 41.1618 48.8634 41.1118C48.8063 41.0617 48.734 41.0313 48.6576 41.0252C48.5811 41.0191 48.5047 41.0376 48.4401 41.0779C48.3754 41.1182 48.3261 41.1781 48.2996 41.2484C48.2732 41.3187 48.2711 41.3955 48.2936 41.4671C48.3161 41.5387 48.362 41.6012 48.4243 41.6448L48.37 42.2829C48.3109 42.3111 48.2611 42.3548 48.2263 42.4092C48.1914 42.4636 48.1729 42.5265 48.1729 42.5906Z" fill="#FAFAFA"/>
<path d="M47.2073 43.0831C47.2805 43.0831 47.3519 43.0608 47.4115 43.0192C47.471 42.9775 47.5157 42.9188 47.5394 42.8511C47.563 42.7834 47.5643 42.7102 47.5432 42.6417C47.522 42.5732 47.4795 42.5129 47.4215 42.4693L47.5332 41.5038C47.5945 41.4764 47.6464 41.4324 47.6827 41.3771C47.719 41.3217 47.7383 41.2573 47.7381 41.1916C47.7386 41.1328 47.7236 41.0749 47.6947 41.0233C47.6657 40.9718 47.6237 40.9284 47.5727 40.8972C47.5216 40.8661 47.4633 40.8482 47.4032 40.8453C47.343 40.8424 47.2832 40.8546 47.2292 40.8807C47.1753 40.9068 47.1291 40.9459 47.0951 40.9944C47.0611 41.0429 47.0403 41.0991 47.0349 41.1576C47.0294 41.2162 47.0394 41.2751 47.0638 41.3288C47.0883 41.3825 47.1265 41.4292 47.1747 41.4644L47.0629 42.4268C47.0014 42.4544 46.9492 42.4986 46.9126 42.5542C46.876 42.6098 46.8565 42.6745 46.8564 42.7406C46.8564 42.8314 46.8934 42.9186 46.9592 42.9828C47.025 43.047 47.1142 43.0831 47.2073 43.0831Z" fill="#FAFAFA"/>
<path d="M45.9204 43.1044C46.0139 43.1044 46.1035 43.0681 46.1696 43.0036C46.2357 42.9391 46.2728 42.8516 46.2728 42.7603C46.2727 42.7072 46.2599 42.6549 46.2354 42.6075C46.2108 42.5601 46.1753 42.519 46.1315 42.4875L46.2588 41.3219C46.3197 41.2945 46.3713 41.2508 46.4076 41.1957C46.4439 41.1407 46.4634 41.0767 46.4637 41.0112C46.463 40.9857 46.4599 40.9604 46.4544 40.9354C46.4376 40.8588 46.3944 40.79 46.3319 40.7407C46.2695 40.6914 46.1916 40.6646 46.1113 40.6646C46.0311 40.6646 45.9532 40.6914 45.8908 40.7407C45.8283 40.79 45.7851 40.8588 45.7683 40.9354C45.7628 40.9604 45.7597 40.9857 45.759 41.0112C45.7591 41.0643 45.7719 41.1167 45.7964 41.164C45.8209 41.2114 45.8565 41.2525 45.9002 41.284L45.773 42.4496C45.6996 42.4819 45.6398 42.5379 45.6037 42.6082C45.5676 42.6784 45.5573 42.7587 45.5746 42.8354C45.5919 42.9122 45.6357 42.9808 45.6987 43.0298C45.7616 43.0788 45.8399 43.1051 45.9204 43.1044Z" fill="#FAFAFA"/>
<path d="M44.8088 40.5898C44.7344 40.5896 44.6618 40.6125 44.6015 40.6552C44.5413 40.6979 44.4965 40.7582 44.4737 40.8274C44.4509 40.8966 44.4512 40.9711 44.4746 41.0401C44.498 41.1091 44.5433 41.1691 44.6039 41.2113L44.5061 42.3859C44.4478 42.4136 44.3986 42.4567 44.3641 42.5103C44.3295 42.5638 44.311 42.6257 44.3105 42.6891C44.3105 42.78 44.3475 42.8673 44.4132 42.9318C44.4789 42.9963 44.5682 43.0327 44.6613 43.0331C44.7099 43.0329 44.758 43.0231 44.8026 43.0043C44.8598 42.9802 44.9094 42.9417 44.9463 42.8927C44.9832 42.8437 45.006 42.7859 45.0125 42.7254C45.019 42.6649 45.0089 42.6038 44.9832 42.5484C44.9574 42.493 44.9171 42.4453 44.8662 42.4102L44.964 41.2431C45.0221 41.2151 45.0711 41.172 45.1056 41.1185C45.1402 41.065 45.1588 41.0032 45.1596 40.94C45.1604 40.8944 45.152 40.8491 45.1347 40.8068C45.1175 40.7644 45.0918 40.7259 45.0592 40.6933C45.0265 40.6607 44.9876 40.6348 44.9446 40.617C44.9016 40.5993 44.8555 40.59 44.8088 40.5898Z" fill="#FAFAFA"/>
<path d="M43.5858 40.6248C43.4987 40.6251 43.4148 40.6572 43.3506 40.7146C43.2863 40.772 43.2462 40.8508 43.2381 40.9355C43.2372 40.9466 43.2372 40.9577 43.2381 40.9688C43.2384 41.0178 43.2495 41.0662 43.2706 41.1107C43.2918 41.1552 43.3225 41.1947 43.3607 41.2265L43.2055 42.0919C43.1327 42.1183 43.0708 42.1672 43.0294 42.2313C42.9879 42.2954 42.9691 42.371 42.976 42.4465C42.9829 42.522 43.0149 42.5932 43.0673 42.6491C43.1197 42.7051 43.1895 42.7427 43.2659 42.7561C43.3423 42.7695 43.4211 42.758 43.4901 42.7234C43.5592 42.6888 43.6147 42.6329 43.648 42.5645C43.6814 42.4961 43.6908 42.4188 43.6748 42.3447C43.6588 42.2705 43.6182 42.2035 43.5594 42.1541L43.7146 41.2886C43.7752 41.2668 43.8288 41.2297 43.8699 41.181C43.9197 41.121 43.9471 41.0461 43.9475 40.9688C43.9475 40.9229 43.9381 40.8774 43.9198 40.835C43.9015 40.7927 43.8747 40.7543 43.841 40.7223C43.8073 40.6902 43.7673 40.665 43.7235 40.6483C43.6797 40.6315 43.6329 40.6235 43.5858 40.6248Z" fill="#FAFAFA"/>
<path d="M42.2955 40.4595C42.202 40.4595 42.1124 40.4957 42.0463 40.5602C41.9802 40.6248 41.9431 40.7123 41.9431 40.8035C41.9428 40.8489 41.9523 40.8939 41.9711 40.9354C41.9912 40.9816 42.0214 41.023 42.0595 41.0567L41.9338 41.6872C41.862 41.7117 41.8003 41.7586 41.7584 41.8206C41.7234 41.8724 41.7034 41.9326 41.7005 41.9947C41.6977 42.0567 41.7121 42.1184 41.7423 42.1731C41.7725 42.2278 41.8172 42.2735 41.8719 42.3054C41.9265 42.3372 41.9889 42.354 42.0526 42.354C42.1162 42.354 42.1786 42.3372 42.2332 42.3054C42.2879 42.2735 42.3326 42.2278 42.3628 42.1731C42.393 42.1184 42.4074 42.0567 42.4046 41.9947C42.4017 41.9326 42.3817 41.8724 42.3467 41.8206C42.33 41.796 42.3102 41.7736 42.2877 41.7539L42.415 41.1249C42.4607 41.1089 42.5025 41.0837 42.5378 41.0511C42.5731 41.0185 42.601 40.9791 42.6199 40.9354C42.6425 40.8832 42.6515 40.8264 42.646 40.77C42.6406 40.7136 42.6209 40.6594 42.5888 40.6122C42.5567 40.5651 42.513 40.5264 42.4618 40.4998C42.4106 40.4731 42.3535 40.4593 42.2955 40.4595Z" fill="#FAFAFA"/>
</g>
<defs>
<clipPath id="clip0_249_12162">
<rect width="88" height="74" fill="white" transform="translate(0.330078)"/>
</clipPath>
</defs>
</svg>
