<svg width="59" height="74" viewBox="0 0 59 74" fill="none" xmlns="http://www.w3.org/2000/svg">
<g clip-path="url(#clip0_249_12116)">
<path d="M28.7969 57.7224C28.2314 57.2164 27.7382 56.6007 27.1982 56.0652C23.7969 52.6915 22.1302 52.3626 18.2696 50.33C11.9601 47.0155 7.71259 43.684 7.25766 35.8446C7.05173 31.6187 7.74564 27.3972 9.29423 23.455C11.0247 18.9724 9.29422 14.6668 6.94727 10.8673C6.94727 10.8673 7.62755 10.4456 8.06973 10.1167C10.5792 8.2979 12.5773 5.87194 13.8733 3.07004C14.171 2.37845 14.4941 1.77964 14.7449 1.06274C16.6752 2.6399 19.1752 4.01465 21.807 3.79536C22.9902 3.63318 24.1607 3.39084 25.3105 3.07004C26.7606 2.71025 28.2406 2.4816 29.7323 2.38688C32.8063 2.38688 35.5954 3.71946 38.6099 3.65199C40.6932 3.60982 42.0665 2.42906 43.6057 1.26938C45.2596 4.98034 47.9041 8.5648 51.3906 10.7703C49.8897 13.3638 48.24 17.2771 48.3846 20.1953C50.1661 27.6805 53.8736 35.2669 49.3625 42.6719C46.3863 47.5721 41.4245 49.7186 36.6668 52.3964C34.4262 53.6615 32.3641 54.8717 31.9644 55.2681C31.1353 56.0221 30.3676 56.84 29.6685 57.714C29.6165 57.7788 29.5506 57.8313 29.4755 57.8677C29.4005 57.904 29.3182 57.9233 29.2347 57.9241C29.1512 57.9249 29.0686 57.9073 28.9928 57.8724C28.9171 57.8375 28.8501 57.7862 28.7969 57.7224V57.7224Z" fill="#FAFAFA"/>
<path d="M29.2523 58.3675C28.9755 58.3604 28.7115 58.2506 28.5125 58.0597C28.1708 57.7434 27.8458 57.4098 27.5388 57.0603C27.3262 56.8326 27.1137 56.6048 26.8968 56.3855C24.3033 53.8174 22.7301 53.0415 20.3449 51.8734C19.6774 51.5444 18.9206 51.1733 18.0702 50.7263C11.293 47.163 7.28362 43.5912 6.83294 35.8909C6.62702 31.6061 7.331 27.3262 8.89927 23.3285C10.6807 18.6898 8.5974 14.3673 6.58633 11.0991L6.36523 10.7449L6.72239 10.5214C6.72239 10.5214 7.39417 10.0997 7.81509 9.79187C10.2679 8.01944 12.2196 5.65086 13.4826 2.91393C13.5847 2.67356 13.6952 2.44163 13.8015 2.21391C13.9971 1.79221 14.1842 1.37051 14.3457 0.948808L14.5455 0.379517L15.0175 0.763259C16.5949 2.05366 19.0949 3.60552 21.7735 3.40311C22.5842 3.31153 23.3862 3.15499 24.1715 2.93502C24.5286 2.84646 24.8773 2.7579 25.2216 2.682C26.7008 2.31465 28.2108 2.08314 29.7327 1.99041C31.2464 2.04223 32.7494 2.26147 34.214 2.64405C35.5852 3.00527 36.9927 3.2132 38.4105 3.26395H38.6018C40.379 3.22599 41.578 2.30668 42.9811 1.244L43.7762 0.645184L43.993 1.13436C45.7872 5.16581 48.4956 8.47195 51.6206 10.4455L51.9607 10.6648L51.7609 11.0106C50.2473 13.6209 48.6827 17.3909 48.8102 20.1657C49.1418 21.5573 49.5457 22.9784 49.9412 24.3532C51.6801 30.451 53.4828 36.7596 49.7286 42.908C47.1095 47.2051 42.9258 49.4739 38.908 51.6625C38.2319 52.0336 37.5516 52.4005 36.8756 52.78C33.1596 54.8885 32.4155 55.4367 32.2667 55.5801C32.1179 55.7235 31.9564 55.8879 31.7948 56.044C31.1471 56.6383 30.5512 57.2858 30.0133 57.9796C29.9253 58.0982 29.8108 58.1949 29.6787 58.2622C29.5467 58.3295 29.4007 58.3656 29.2523 58.3675V58.3675ZM7.52595 11.019C9.42647 14.1733 11.5566 18.7825 9.69434 23.6279C8.16657 27.5194 7.47997 31.6857 7.67903 35.8572C8.1042 43.2032 11.8032 46.4925 18.4657 49.9968C19.316 50.4396 20.06 50.8065 20.7233 51.1354C23.1808 52.3414 24.805 53.1385 27.5006 55.8078C27.7259 56.0313 27.9257 56.2717 28.1681 56.5121C28.4566 56.8393 28.7617 57.1518 29.0822 57.4482C29.1122 57.482 29.152 57.5058 29.1961 57.5163C29.2402 57.5269 29.2866 57.5237 29.3288 57.5073C29.8934 56.7773 30.5193 56.0959 31.1996 55.4705L31.6673 55.015C32.0457 54.6397 33.6571 53.6529 36.459 52.0631C37.135 51.6836 37.8195 51.3125 38.4955 50.9414C42.6154 48.6684 46.5015 46.5599 48.993 42.461C52.556 36.612 50.8851 30.7546 49.1121 24.5598C48.7167 23.164 48.3043 21.7176 47.9641 20.2964V20.2247C47.8196 17.3825 49.3119 13.6209 50.8255 10.9136C47.8493 8.91473 45.2345 5.75619 43.4403 1.93559C42.0074 3.02357 40.6469 4.04409 38.6188 4.08205H38.4105C36.9299 4.03021 35.4597 3.81523 34.027 3.44106C32.6236 3.07298 31.1834 2.86082 29.7327 2.80851C28.2725 2.90396 26.8238 3.12978 25.4045 3.48323C25.0686 3.55492 24.7284 3.63926 24.3798 3.72781C23.5446 3.96093 22.6913 4.12455 21.8288 4.21699C19.1332 4.4194 16.6289 3.04888 14.924 1.75004C14.8092 2.02837 14.6859 2.29403 14.5626 2.55549C14.4393 2.81694 14.3542 3.00249 14.2522 3.23442C12.9279 6.10914 10.8776 8.59595 8.29976 10.4539C8.07867 10.6353 7.75129 10.8461 7.52595 10.9979V11.019Z" fill="#FAFAFA" stroke="#FAFAFA" stroke-miterlimit="10"/>
<path fill-rule="evenodd" clip-rule="evenodd" d="M29.2735 57.4398C29.129 57.638 26.9861 54.4879 22.7174 51.9872C21.4036 51.2198 16.3695 49.3432 11.9307 45.5479C11.225 44.9449 8.10418 41.9634 7.74278 35.815C7.52569 31.6571 8.21002 27.5013 9.74961 23.6279C10.1025 22.717 11.3568 19.2844 9.47749 14.6921C9.14161 13.874 8.0149 11.6727 7.61523 11.0233C7.61523 11.0233 12.1816 8.18945 14.3202 3.25977C14.6093 2.58927 14.8262 2.29407 14.975 1.87659C14.975 1.87659 18.2488 4.55017 21.8415 4.27606C22.9597 4.19172 27.6239 2.86759 29.7327 2.86759C33.3467 2.86759 35.4895 4.20438 38.6188 4.13269C40.8595 4.0863 42.4454 2.74529 43.4105 2.02418C43.4105 2.02418 46.0508 7.96594 50.7362 10.9263C50.7362 10.9263 47.675 16.2228 47.9046 20.2627C47.9046 20.2627 48.6699 23.5056 49.1801 24.834C49.6903 26.1623 51.7311 32.7619 50.7107 37.9067C50.4216 39.3405 49.3714 44.8099 41.5823 49.1534C40.2132 49.9167 32.5558 54.0325 31.6332 54.9434C30.7841 55.7151 29.9952 56.5496 29.2735 57.4398Z" fill="#B5B5B5"/>
<path fill-rule="evenodd" clip-rule="evenodd" d="M15.1191 47.3528V2.47961C15.1191 2.47961 18.1251 5.27549 22.3471 4.62607V51.2198C22.3471 51.2198 19.1965 49.7607 16.5179 48.1793C15.7909 47.7576 15.1191 47.3528 15.1191 47.3528Z" fill="#FAFAFA"/>
<path fill-rule="evenodd" clip-rule="evenodd" d="M43.3676 47.4666V2.58923C43.3676 2.58923 40.6932 5.46102 36.1396 4.35194V51.3336C36.1396 51.3336 39.2902 49.8787 41.9687 48.2973L43.3676 47.4666Z" fill="#FAFAFA"/>
<path fill-rule="evenodd" clip-rule="evenodd" d="M29.4342 41.9929C29.4342 42.2248 27.5337 39.8338 23.2948 38.0162C21.6578 37.3162 19.043 35.583 19.8296 30.2063C19.9827 29.169 21.2539 27.1237 20.8288 26.2803C20.4036 25.4369 19.6128 24.0158 19.3789 23.5477C19.3789 23.5477 22.3551 21.7766 23.2948 19.3307C23.2948 19.3307 24.2557 20.5325 26.3347 20.2416C28.0354 20.0054 30.0082 19.706 31.6877 20.2416C33.0865 20.697 34.9487 19.9253 35.4674 19.3982C35.4674 19.3982 36.6324 22.3121 39.1367 23.573C39.1367 23.573 37.7506 25.652 37.9249 26.9466C38.0992 28.2412 39.6512 30.7208 38.8008 34.1788C38.5244 35.3005 37.9164 37.2192 32.9207 39.2392C31.5941 39.7452 29.4342 41.7567 29.4342 41.9929Z" fill="#FAFAFA"/>
<path fill-rule="evenodd" clip-rule="evenodd" d="M15.293 17.121L16.0753 16.5686V8.04602C15.9519 7.80624 15.8097 7.57641 15.6501 7.35864H19.3789C19.9614 7.35864 21.4792 7.61588 21.594 10.0364C21.5307 10.5315 21.3049 10.9922 20.9515 11.3473C20.598 11.7025 20.1365 11.9324 19.6382 12.0016C20.331 12.0575 20.9755 12.3754 21.4385 12.8896C21.9015 13.4037 22.1474 14.0747 22.1255 14.7637C22.1255 15.4258 21.7003 17.0282 19.5192 17.1885C19.094 17.218 17.1467 17.0282 16.7556 17.0282L15.293 17.121ZM18.0311 11.5588V8.0165C18.0311 8.0165 19.1408 7.73818 19.4086 8.4382C19.6085 8.94424 19.6722 8.77134 19.6212 10.6057C19.625 10.8501 19.5341 11.0866 19.3671 11.2663C19.2002 11.446 18.97 11.5552 18.7241 11.5714C18.537 11.5588 18.0311 11.5588 18.0311 11.5588ZM18.0311 16.3999V12.3516C18.0311 12.3516 19.549 12.1913 19.7615 13.0558C19.995 13.8017 20.056 14.5901 19.9401 15.3625C19.9038 15.6525 19.7644 15.9201 19.547 16.1172C19.3295 16.3143 19.0483 16.428 18.7539 16.4379C18.2352 16.4336 18.0311 16.4083 18.0311 16.4083V16.3999Z" fill="#B5B5B5"/>
<path fill-rule="evenodd" clip-rule="evenodd" d="M27.0878 8.34121C27.0878 8.34121 27.2621 7.60323 27.3599 7.35864H31.9858C31.9858 7.35864 31.4543 7.90686 31.4713 8.34543C31.4883 8.784 31.4713 16.9903 31.4713 16.9903C30.5553 17.2763 29.6097 17.4588 28.6524 17.5343C27.5087 17.5343 25.7825 17.568 25.081 15.6704C24.9194 15.2487 25.0257 13.9456 26.3565 13.9836C26.498 13.9891 26.6368 14.0242 26.7637 14.0865C26.8906 14.1488 27.0028 14.237 27.0931 14.3452C27.1834 14.4534 27.2496 14.5793 27.2875 14.7146C27.3254 14.85 27.3342 14.9917 27.3132 15.1306C27.3132 15.4384 26.888 15.818 26.1057 15.7631C26.1057 15.7631 26.1949 16.4969 27.7596 16.9692C28.1848 17.0915 29.4603 16.8722 29.5155 16.2734C29.5411 15.8517 29.5155 8.30325 29.5155 8.30325C29.514 8.23572 29.4909 8.1704 29.4497 8.11663C29.4085 8.06286 29.3512 8.02339 29.286 8.00385C28.5971 7.99356 27.9106 8.08595 27.2494 8.27795C27.2069 8.2906 27.0878 8.34121 27.0878 8.34121Z" fill="#FAFAFA"/>
<path fill-rule="evenodd" clip-rule="evenodd" d="M29.1709 40.7658C29.1709 40.9766 27.4192 38.9862 23.5884 37.3458C22.1088 36.709 19.7873 35.1867 20.5101 30.3245C20.6504 29.3841 22.0492 27.0732 21.6666 26.3099C21.2839 25.5466 20.5951 24.2351 20.391 23.8092C20.391 23.8092 22.6997 22.1983 23.5076 20.4736C23.5076 20.4736 25.1658 21.4899 26.7049 21.1947C28.244 20.8995 29.6811 20.7266 31.3478 21.2368C32.062 21.4519 34.5068 20.8531 34.9787 20.3934C34.9787 20.3934 36.3775 22.7128 38.0442 23.6869C38.0442 23.6869 36.7219 25.8544 36.892 26.778C37.0621 27.7015 38.6862 30.7926 37.9167 33.9174C37.6658 34.9337 37.1046 36.7554 32.585 38.5561C31.386 39.041 29.1709 40.5549 29.1709 40.7658Z" fill="#B5B5B5"/>
<path fill-rule="evenodd" clip-rule="evenodd" d="M20.6674 47.4709C20.9121 47.6939 21.1801 47.8904 21.4667 48.057V48.4324H18.1759V48.057C18.4586 47.8922 18.7211 47.6955 18.9582 47.4709V43.8864H17.874V43.1864C17.874 43.1864 19.7533 42.4231 19.7108 42.1279H20.6674V47.4709Z" fill="#B5B5B5"/>
<path fill-rule="evenodd" clip-rule="evenodd" d="M38.3636 47.5045C38.3636 47.8799 39.0354 47.8419 39.0269 47.8503C39.1607 47.8471 39.2926 47.8176 39.4149 47.7636C39.5372 47.7097 39.6476 47.6323 39.7396 47.5359C39.8317 47.4395 39.9036 47.326 39.9513 47.2019C39.999 47.0779 40.0215 46.9457 40.0176 46.813C40.0291 46.5062 39.937 46.2044 39.756 45.9554C39.5751 45.7064 39.3155 45.5244 39.0184 45.4382C38.7968 45.3785 38.5651 45.3656 38.3381 45.4003V44.7635C38.675 44.8298 39.0217 44.8298 39.3586 44.7635C39.3586 44.7635 39.9028 44.6834 39.8985 43.7514C39.8985 42.3767 38.8696 42.4863 38.5295 42.5074C38.1893 42.5285 38.1723 42.9291 38.3636 42.9544C38.555 42.9797 38.7165 43.2412 38.7165 43.2412C38.7634 43.3562 38.7851 43.4798 38.7803 43.6038C38.7803 43.8566 38.6791 44.099 38.4989 44.2777C38.3187 44.4565 38.0743 44.5569 37.8194 44.5569C37.5646 44.5569 37.3202 44.4565 37.14 44.2777C36.9598 44.099 36.8585 43.8566 36.8585 43.6038L36.8373 43.4478C36.8373 42.2923 38.2744 41.8538 39.1842 41.8538C40.0941 41.8538 41.5949 42.3767 41.5949 43.5406C41.5949 44.7045 40.3662 45.0924 40.3662 45.0924C40.953 45.2274 41.731 45.8262 41.731 46.5473C41.731 47.2684 41.1103 48.4913 39.1205 48.4913C36.6672 48.4913 36.7395 46.8425 36.7395 46.8425C36.74 46.7192 36.7651 46.5972 36.8134 46.4836C36.8616 46.3699 36.932 46.2668 37.0204 46.1802C37.1089 46.0936 37.2138 46.0252 37.329 45.9789C37.4442 45.9327 37.5676 45.9094 37.6919 45.9105C37.8169 45.9088 37.9411 45.9316 38.0573 45.9776C38.1735 46.0235 38.2794 46.0917 38.3691 46.1782C38.4587 46.2648 38.5302 46.368 38.5797 46.4819C38.6291 46.5959 38.6553 46.7184 38.657 46.8425C38.6569 46.952 38.6368 47.0606 38.5975 47.163C38.5826 47.1848 38.562 47.2023 38.538 47.2136C38.4657 47.2178 38.3636 47.2642 38.3636 47.5045Z" fill="#B5B5B5"/>
<path fill-rule="evenodd" clip-rule="evenodd" d="M39.2134 7.3418C38.9947 7.55666 38.8669 7.84628 38.8563 8.15146V11.3733L40.591 8.63642C40.6501 8.51722 40.6827 8.38687 40.6869 8.25411C40.691 8.12135 40.6665 7.98924 40.615 7.86665C40.5634 7.74406 40.4861 7.63381 40.3881 7.54328C40.2901 7.45276 40.1737 7.38407 40.0468 7.3418H42.7253C42.2854 7.57217 41.8999 7.89272 41.5944 8.28219L39.6684 11.3733C40.0256 11.3555 40.3803 11.4414 40.6891 11.6204C40.9979 11.7994 41.2475 12.0637 41.4073 12.3811C41.7858 13.4137 42.0704 14.4778 42.2576 15.5607C42.2576 15.5607 42.5213 16.9524 43.2398 17.0283C43.2398 17.0283 41.3393 17.7241 40.9609 16.6319C40.7228 15.9361 40.4592 14.7764 40.2976 14.0721C40.2246 13.7204 40.128 13.3738 40.0085 13.0348C39.8469 12.5118 39.7066 12.2124 38.8775 12.2124V15.6704C38.8715 15.945 38.9275 16.2175 39.0416 16.4678C39.1556 16.7181 39.3248 16.9398 39.5366 17.1168C39.0498 17.0581 38.56 17.0272 38.0697 17.024C37.5308 17.0365 36.9942 17.0987 36.4668 17.2096C36.7854 16.8249 36.9769 16.3523 37.0153 15.8559V8.22315C36.9456 7.89013 36.7715 7.58751 36.5178 7.35866L39.2134 7.3418Z" fill="#B5B5B5"/>
<path d="M27.6833 22.8435L29.2436 23.9863L30.8083 22.8435L30.1918 24.6737L31.7734 25.7785H29.8304L29.2436 27.6172L28.6569 25.7785H26.7139L28.2955 24.6737L27.6833 22.8435Z" fill="#FAFAFA"/>
<path d="M23.3331 31.1384C23.3308 30.2775 23.5201 29.4267 23.8876 28.6467C24.255 27.8667 24.7916 27.1768 25.4589 26.6262C24.9872 27.3076 24.712 28.1039 24.6632 28.929C24.6144 29.7542 24.7938 30.5769 25.1819 31.3083C25.5701 32.0398 26.1524 32.6521 26.8658 33.0793C27.5793 33.5065 28.3968 33.7323 29.2302 33.7323C30.0636 33.7323 30.8811 33.5065 31.5946 33.0793C32.308 32.6521 32.8903 32.0398 33.2785 31.3083C33.6667 30.5769 33.846 29.7542 33.7972 28.929C33.7484 28.1039 33.4733 27.3076 33.0015 26.6262C33.7678 27.2561 34.3612 28.0678 34.7269 28.9859C35.0925 29.904 35.2184 30.8989 35.093 31.8781C34.9675 32.8574 34.5947 33.7894 34.0092 34.5876C33.4237 35.3859 32.6444 36.0245 31.7437 36.4443C30.8429 36.8642 29.8498 37.0516 28.8566 36.9892C27.8633 36.9268 26.902 36.6166 26.0619 36.0873C25.2217 35.5581 24.5299 34.827 24.0506 33.9619C23.5714 33.0967 23.3202 32.1255 23.3203 31.1384H23.3331Z" fill="#FAFAFA"/>
<path fill-rule="evenodd" clip-rule="evenodd" d="M29.6045 45.2401C29.6045 43.3972 30.846 41.9044 32.3723 41.9044C33.8987 41.9044 35.1445 43.3972 35.1445 45.2401C35.1445 47.0829 33.903 48.5715 32.3723 48.5715C30.8417 48.5715 29.6045 47.0787 29.6045 45.2401ZM31.3817 45.2696C31.3817 43.781 31.8069 42.5749 32.3851 42.5749C32.9633 42.5749 33.3885 43.781 33.3885 45.2696C33.3885 46.7582 32.9378 47.9642 32.3851 47.9642C31.8324 47.9642 31.3817 46.7582 31.3817 45.2696V45.2696Z" fill="#FAFAFA"/>
<path fill-rule="evenodd" clip-rule="evenodd" d="M25.4632 48.4956C25.0806 48.4956 23.5202 48.0359 23.6265 46.91C23.6821 46.6444 23.8373 46.4097 24.0606 46.2531C24.2839 46.0966 24.5588 46.0299 24.8297 46.0666C25.2166 46.0666 25.6503 46.6907 25.5865 47.2979C25.561 47.572 25.5483 48.1118 25.8629 47.9642C26.1775 47.8166 26.7473 47.3949 26.7473 45.2189C26.7473 45.2189 26.2498 45.8726 24.5108 45.5647C24.1707 45.5015 23.1843 45.2316 23.3969 43.4562C23.4352 43.0978 23.8773 41.8411 26.05 41.8622C26.4964 41.8622 28.601 42.2839 28.5372 45.5436C28.5245 46.0539 28.3459 48.4956 25.4632 48.4956ZM25.1359 43.8273C25.1359 43.1695 25.4675 42.6339 25.8757 42.6339C26.2838 42.6339 26.6155 43.1695 26.6155 43.8273C26.6155 44.4852 26.2838 45.025 25.8757 45.025C25.4675 45.025 25.1359 44.4894 25.1359 43.8273Z" fill="#FAFAFA"/>
<path d="M57.1816 63.7864C56.9231 63.787 56.6684 63.8485 56.4385 63.9658C56.2087 64.0831 56.0102 64.2528 55.8594 64.4611L54.1289 66.8606L55.1238 68.2353L58.3466 63.7864H57.1816Z" fill="#B5B5B5"/>
<path d="M58.2102 73.7259L51.1183 63.8918C51.0948 63.8598 51.0641 63.8337 51.0287 63.8154C50.9933 63.7971 50.9541 63.7872 50.9142 63.7864H49.3071C49.2736 63.7885 49.2422 63.8032 49.2193 63.8275C49.1964 63.8518 49.1837 63.8838 49.1838 63.9171C49.1844 63.9424 49.1917 63.9672 49.205 63.9888L52.6362 68.7329C52.661 68.7697 52.6743 68.813 52.6743 68.8573C52.6743 68.9016 52.661 68.9449 52.6362 68.9817L49.205 73.7259C49.1863 73.7536 49.1789 73.7873 49.1844 73.8203C49.1899 73.8532 49.208 73.8828 49.2348 73.903C49.2563 73.9175 49.2812 73.9262 49.3071 73.9283H50.9185C50.9584 73.9275 50.9976 73.9175 51.033 73.8992C51.0684 73.8809 51.099 73.8548 51.1226 73.8228L53.6141 70.3691C53.6255 70.3534 53.6405 70.3407 53.6579 70.3319C53.6752 70.3231 53.6945 70.3185 53.714 70.3185C53.7335 70.3185 53.7527 70.3231 53.7701 70.3319C53.7875 70.3407 53.8025 70.3534 53.8139 70.3691L56.3054 73.8228C56.329 73.8548 56.3596 73.8809 56.395 73.8992C56.4304 73.9175 56.4696 73.9275 56.5095 73.9283H58.1167C58.1509 73.9272 58.1833 73.9129 58.2071 73.8885C58.2309 73.8641 58.2442 73.8315 58.2442 73.7975C58.2419 73.7704 58.2298 73.7449 58.2102 73.7259V73.7259Z" fill="#B5B5B5"/>
<path d="M47.8366 72.4481C47.8366 72.4152 47.8237 72.3837 47.8007 72.3601C47.7777 72.3365 47.7464 72.3226 47.7133 72.3216H42.5644C42.5482 72.321 42.5323 72.3173 42.5176 72.3107C42.5028 72.304 42.4895 72.2945 42.4785 72.2828C42.4674 72.271 42.4588 72.2572 42.4531 72.2422C42.4475 72.2271 42.4448 72.2111 42.4454 72.195V69.7829C42.4454 69.7505 42.4584 69.7194 42.4815 69.6964C42.5046 69.6735 42.536 69.6606 42.5687 69.6606H46.8672C46.9003 69.6595 46.9316 69.6457 46.9546 69.6221C46.9776 69.5985 46.9905 69.567 46.9905 69.5341V68.1805C46.9883 68.1495 46.9744 68.1205 46.9515 68.0994C46.9286 68.0782 46.8985 68.0665 46.8672 68.0666H42.5687C42.5352 68.0645 42.5038 68.0497 42.4809 68.0255C42.458 68.0012 42.4453 67.9691 42.4454 67.9359V65.5364C42.4454 65.504 42.4584 65.4729 42.4815 65.4499C42.5046 65.427 42.536 65.4141 42.5687 65.4141H47.7175C47.7506 65.4141 47.7825 65.4014 47.8063 65.3786C47.8301 65.3557 47.844 65.3246 47.8451 65.2918V63.9424C47.8456 63.9254 47.8428 63.9085 47.8366 63.8927C47.8305 63.8768 47.8212 63.8624 47.8093 63.8502C47.7974 63.838 47.7831 63.8283 47.7674 63.8217C47.7516 63.815 47.7346 63.8116 47.7175 63.8116H40.9573C40.9242 63.8127 40.8928 63.8265 40.8698 63.8502C40.8468 63.8738 40.834 63.9053 40.834 63.9382V73.8017C40.834 73.8342 40.847 73.8653 40.8701 73.8882C40.8932 73.9111 40.9246 73.924 40.9573 73.924H47.7175C47.7506 73.924 47.7825 73.9113 47.8063 73.8885C47.8301 73.8656 47.844 73.8345 47.8451 73.8017L47.8366 72.4481Z" fill="#B5B5B5"/>
<path d="M36.0844 63.7905H32.1643C32.1312 63.7916 32.0999 63.8055 32.0769 63.8291C32.0538 63.8527 32.041 63.8842 32.041 63.9171V73.7975C32.041 73.8299 32.054 73.861 32.0771 73.884C32.1003 73.9069 32.1316 73.9198 32.1643 73.9198H33.5291C33.5618 73.9198 33.5932 73.9069 33.6163 73.884C33.6394 73.861 33.6524 73.8299 33.6524 73.7975V70.5209C33.6524 70.4914 33.6639 70.4631 33.6845 70.4418C33.7051 70.4206 33.7333 70.4081 33.763 70.407C34.592 70.407 35.7273 70.407 36.1609 70.407C37.6448 70.3522 39.5623 69.0787 39.49 66.9786C39.4421 66.1157 39.0621 65.3039 38.4285 64.7107C37.7948 64.1175 36.9558 63.7882 36.0844 63.7905V63.7905ZM36.1652 68.7961H33.7672C33.7379 68.7961 33.7098 68.7846 33.6891 68.764C33.6683 68.7435 33.6567 68.7156 33.6567 68.6865V65.5027C33.6578 65.4732 33.6703 65.4453 33.6918 65.4248C33.7132 65.4044 33.7417 65.393 33.7715 65.393H36.1142C36.5423 65.3883 36.9573 65.5393 37.2809 65.8175C37.6044 66.0956 37.814 66.4817 37.8701 66.9027C37.8998 67.1413 37.8778 67.3834 37.8054 67.6128C37.7331 67.8423 37.6122 68.0537 37.4507 68.233C37.2893 68.4123 37.091 68.5553 36.8693 68.6524C36.6476 68.7496 36.4076 68.7985 36.1652 68.7961Z" fill="#B5B5B5"/>
<path d="M28.8605 63.9129L26.1267 68.6064C26.1173 68.6241 26.1032 68.6388 26.086 68.6492C26.0688 68.6595 26.049 68.6649 26.0289 68.6649C26.0087 68.6649 25.989 68.6595 25.9718 68.6492C25.9546 68.6388 25.9405 68.6241 25.9311 68.6064L23.2015 63.9129C23.1789 63.8758 23.1471 63.8451 23.1092 63.8237C23.0712 63.8022 23.0283 63.7908 22.9847 63.7906H21.4795C21.4576 63.7904 21.4361 63.7961 21.4171 63.807C21.3981 63.8179 21.3824 63.8336 21.3716 63.8525C21.3607 63.8714 21.3552 63.8928 21.3555 63.9145C21.3558 63.9363 21.3619 63.9575 21.3732 63.9761L25.1828 70.5041C25.2163 70.5602 25.2339 70.6243 25.2338 70.6896V73.7975C25.2338 73.8311 25.2473 73.8633 25.2712 73.887C25.2951 73.9107 25.3275 73.9241 25.3614 73.9241H26.7262C26.7427 73.9241 26.7591 73.9208 26.7744 73.9143C26.7896 73.9079 26.8034 73.8986 26.8149 73.8867C26.8264 73.8749 26.8354 73.861 26.8413 73.8456C26.8473 73.8303 26.85 73.8139 26.8495 73.7975V70.6938C26.8487 70.6285 26.8663 70.5642 26.9005 70.5083L30.71 63.9761C30.7216 63.9572 30.7277 63.9356 30.7279 63.9134C30.728 63.8913 30.7221 63.8696 30.7107 63.8506C30.6994 63.8315 30.683 63.8159 30.6634 63.8053C30.6439 63.7948 30.6218 63.7897 30.5995 63.7906H29.0986C29.0513 63.786 29.0036 63.7951 28.9614 63.8168C28.9191 63.8385 28.8841 63.8719 28.8605 63.9129V63.9129Z" fill="#B5B5B5"/>
<path d="M19.4134 66.8016C19.4902 67.233 19.3946 67.6772 19.1471 68.04C18.8995 68.4028 18.5193 68.6559 18.0869 68.7456C17.9667 68.7709 17.8441 68.7837 17.7213 68.7836H16.4245C16.4066 68.7825 16.3888 68.7863 16.3729 68.7946C16.3571 68.8028 16.3439 68.8153 16.3346 68.8305C16.3254 68.8457 16.3206 68.8631 16.3207 68.8809C16.3208 68.8986 16.3258 68.916 16.3352 68.9312L17.1855 70.4029L19.1711 73.8102C19.1895 73.841 19.2156 73.8665 19.2469 73.8842C19.2782 73.902 19.3136 73.9113 19.3497 73.9114H20.9483C20.9625 73.9108 20.9763 73.9067 20.9885 73.8995C21.0007 73.8922 21.0109 73.882 21.0181 73.8698C21.0252 73.8577 21.0292 73.8439 21.0297 73.8298C21.0301 73.8157 21.027 73.8017 21.0206 73.7892L18.9372 70.2131C18.9301 70.2012 18.9256 70.1878 18.9241 70.174C18.9226 70.1601 18.9241 70.1462 18.9285 70.133C18.933 70.1198 18.9402 70.1077 18.9498 70.0975C18.9594 70.0873 18.971 70.0793 18.984 70.074C19.6216 69.8151 20.1622 69.3658 20.531 68.7886C20.8997 68.2113 21.0782 67.5346 21.0418 66.8522C20.9662 66.0103 20.5747 65.2273 19.9449 64.658C19.315 64.0887 18.4926 63.7746 17.6405 63.778H13.7034C13.6703 63.7791 13.6389 63.7929 13.6159 63.8165C13.5929 63.8401 13.5801 63.8717 13.5801 63.9045V73.7849C13.5801 73.8174 13.5931 73.8485 13.6162 73.8714C13.6393 73.8943 13.6707 73.9072 13.7034 73.9072H15.0639C15.0805 73.9078 15.0969 73.9051 15.1124 73.8992C15.1279 73.8933 15.142 73.8843 15.1539 73.8729C15.1658 73.8615 15.1752 73.8478 15.1817 73.8327C15.1881 73.8176 15.1915 73.8014 15.1915 73.7849V65.5365C15.1915 65.504 15.2045 65.4729 15.2276 65.45C15.2507 65.4271 15.2821 65.4142 15.3148 65.4142H17.6532C18.0645 65.4022 18.4668 65.5349 18.789 65.7888C19.1111 66.0427 19.3323 66.4015 19.4134 66.8016V66.8016Z" fill="#B5B5B5"/>
<path d="M8.20539 72.4059C7.25705 72.4138 6.34442 72.0476 5.66826 71.3881C4.99211 70.7285 4.60783 69.8295 4.59993 68.889C4.59204 67.9484 4.96118 67.0432 5.62617 66.3726C6.29116 65.7019 7.19752 65.3208 8.14586 65.3129C8.67146 65.3016 9.19299 65.4067 9.67252 65.6204C10.1521 65.8341 10.5775 66.1512 10.918 66.5485C10.9389 66.5705 10.9669 66.5846 10.9971 66.5885C11.0273 66.5923 11.058 66.5856 11.0838 66.5696L12.2233 65.8148C12.2502 65.7967 12.2689 65.7689 12.2752 65.7373C12.2816 65.7058 12.2751 65.673 12.2573 65.6461V65.6461C11.6152 64.8536 10.7507 64.2677 9.773 63.9625C8.79528 63.6573 7.74825 63.6464 6.76433 63.9314C5.78041 64.2164 4.90378 64.7843 4.24527 65.5634C3.58676 66.3424 3.17593 67.2977 3.06476 68.3083C2.95359 69.319 3.14706 70.3396 3.62069 71.2412C4.09433 72.1428 4.82687 72.8849 5.72569 73.3736C6.62451 73.8622 7.64926 74.0756 8.67034 73.9867C9.69142 73.8978 10.663 73.5106 11.4622 72.874C11.7562 72.6415 12.0228 72.377 12.2573 72.0854C12.2804 72.0625 12.2934 72.0314 12.2934 71.999C12.2934 71.9666 12.2804 71.9355 12.2573 71.9125L11.1178 71.1577C11.092 71.1417 11.0613 71.135 11.0311 71.1388C11.0009 71.1427 10.9729 71.1568 10.952 71.1788C10.6173 71.5678 10.2013 71.8802 9.73301 72.0942C9.26468 72.3083 8.75508 72.4189 8.23941 72.4186" fill="#B5B5B5"/>
<path d="M0 73.8017V63.7905C0.427761 63.7916 0.837617 63.961 1.13969 64.2614C1.44177 64.5618 1.6114 64.9687 1.61139 65.393V73.8017C1.61139 73.8341 1.59839 73.8652 1.57527 73.8882C1.55215 73.9111 1.5208 73.924 1.4881 73.924H0.123291C0.0905895 73.924 0.0592203 73.9111 0.0360971 73.8882C0.0129739 73.8652 0 73.8341 0 73.8017" fill="#B5B5B5"/>
</g>
<defs>
<clipPath id="clip0_249_12116">
<rect width="58.3294" height="74" fill="white"/>
</clipPath>
</defs>
</svg>
