<svg width="82" height="40" viewBox="0 0 82 40" fill="none" xmlns="http://www.w3.org/2000/svg">
<g clip-path="url(#clip0_249_12189)">
<path fill-rule="evenodd" clip-rule="evenodd" d="M3.09295 3.54076C3.28376 3.56988 3.46665 3.63762 3.63047 3.73986C3.7943 3.8421 3.93562 3.97668 4.04583 4.13542C4.40314 4.67738 4.58329 5.3173 4.56133 5.96643V27.0345C4.55309 27.1636 4.50988 27.2881 4.43636 27.3944C4.16632 27.8633 3.80425 28.2725 3.37199 28.5972C2.93974 28.922 2.44627 29.1557 1.92138 29.2841C1.42512 29.4066 0.917075 29.4748 0.406143 29.4876C0.374758 29.7317 0.374758 29.9789 0.406143 30.2231C4.35825 30.2231 8.32208 30.2231 12.2742 30.2231C12.2898 29.9729 12.2898 29.722 12.2742 29.4719C11.9305 29.4406 11.5869 29.4719 11.2432 29.4406C10.6689 29.3967 10.1102 29.2328 9.603 28.9594C9.32085 28.7943 9.07547 28.5731 8.88202 28.3093C8.68857 28.0455 8.55117 27.7448 8.47829 27.4257C8.42337 27.1423 8.4076 26.8527 8.43143 26.565V0.786436C8.4359 0.636586 8.40243 0.488052 8.33415 0.354653C8.26586 0.221254 8.16498 0.107352 8.0409 0.0235444C7.85345 -0.0547029 7.65038 0.0861308 7.52541 0.207414C6.79727 0.910206 5.9241 1.44441 4.96747 1.77236C3.35652 2.32565 1.68222 2.67269 -0.015625 2.80523V3.52509C1.01536 3.58769 2.04635 3.5251 3.07733 3.5564L3.09295 3.54076ZM36.4867 14.0259C36.5611 13.8752 36.6773 13.7493 36.8214 13.6632C36.9655 13.5772 37.1314 13.5346 37.299 13.5408H58.3874C58.551 13.5342 58.7129 13.577 58.8521 13.6634C58.9913 13.7499 59.1015 13.8761 59.1684 14.0259C59.2547 14.2266 59.287 14.4465 59.2621 14.6636V17.1519C59.2601 17.269 59.2351 17.3846 59.1884 17.4921C59.1418 17.5995 59.0745 17.6967 58.9903 17.7781C58.9062 17.8595 58.8069 17.9234 58.6981 17.9664C58.5892 18.0093 58.4731 18.0303 58.3561 18.0282H51.3501C50.6472 18.0282 49.9325 18.0595 49.2296 18.0282C49.1265 17.3392 48.8031 16.7022 48.3079 16.2129C48.1482 16.0945 47.9494 16.0415 47.7521 16.0648C47.5547 16.088 47.3736 16.1858 47.2457 16.3381C46.8668 16.8153 46.653 17.403 46.6365 18.0126C46.3404 18.0386 46.0432 18.0491 45.7461 18.0439C43.0124 18.0439 40.2358 18.0439 37.4865 18.0439C37.2353 18.058 36.9855 17.9982 36.7679 17.8717C36.648 17.7813 36.5524 17.6625 36.4897 17.5259C36.427 17.3893 36.3991 17.2393 36.4086 17.0893V14.691C36.3828 14.4662 36.4096 14.2385 36.4867 14.0259ZM42.989 11.0955C44.5979 10.1253 45.8789 8.68551 47.0192 7.18317C47.2847 6.83888 47.5191 6.47893 47.8002 6.16594C47.9944 6.38171 48.1719 6.6119 48.3313 6.85452C49.5029 8.41946 50.7956 9.93354 52.467 10.9821C53.2436 11.472 54.0923 11.8364 54.982 12.0619C54.9974 12.2546 54.9974 12.4482 54.982 12.6409H42.782C42.0634 12.6409 41.3449 12.6722 40.6263 12.6409C40.6107 12.4482 40.6107 12.2546 40.6263 12.0619C41.4585 11.8456 42.2564 11.5138 42.9968 11.076L42.989 11.0955ZM57.5634 23.0243C56.9615 24.4954 56.0944 25.8428 55.0054 26.9993C53.9547 28.1064 52.6524 28.9426 51.2095 29.4367C51.0158 29.5034 50.8174 29.5557 50.6159 29.5932C50.7096 29.4054 50.9127 29.3115 51.0689 29.2019C51.5904 28.8393 52.0361 28.3782 52.3811 27.8444C52.4927 27.681 52.5612 27.4921 52.5803 27.2951C52.5994 27.0981 52.5685 26.8994 52.4904 26.7176C52.4032 26.5559 52.2715 26.4227 52.1108 26.3339C51.9502 26.2451 51.7675 26.2045 51.5844 26.2168C50.9333 26.3311 50.3188 26.5993 49.7919 26.9993C49.292 27.3279 48.839 27.7505 48.3704 28.1104C48.3548 27.5157 48.3548 26.921 48.3704 26.3264C49.3635 25.9654 50.3029 25.4705 51.1626 24.8553C51.8095 24.4078 52.3139 23.783 52.6154 23.0556C52.6922 22.8838 52.7266 22.696 52.7157 22.5081C52.7048 22.3201 52.649 22.1376 52.5529 21.9758C52.4426 21.8707 52.3048 21.7991 52.1555 21.7693C52.0062 21.7395 51.8515 21.7528 51.7094 21.8076C51.1152 21.9802 50.5596 22.2658 50.0731 22.6487C49.6829 22.9917 49.2083 23.2241 48.6984 23.3217C48.636 23.4625 48.4797 23.2121 48.636 23.2121C48.9201 22.2717 49.129 21.3102 49.2608 20.3365C49.3203 19.8276 49.3412 19.315 49.3233 18.8029C51.9593 18.8029 54.6149 18.8029 57.2548 18.8029C57.7664 18.8029 58.2663 18.8029 58.7818 18.8029C58.5527 20.2554 58.1434 21.6735 57.5634 23.0243ZM47.2847 28.0674C47.0645 27.9226 46.8602 27.7547 46.6755 27.5666C46.0922 27.056 45.4335 26.639 44.7229 26.3303C44.4188 26.196 44.0825 26.1525 43.7544 26.2051C43.5158 26.262 43.3088 26.41 43.1776 26.6175C43.0463 26.8251 43.001 27.0757 43.0515 27.3162C43.144 27.6714 43.3208 27.9989 43.5669 28.2708C43.8817 28.6338 44.2383 28.9581 44.6292 29.2372C44.8039 29.3501 44.9662 29.4812 45.1134 29.6284C45.254 29.5189 45.2696 29.8162 45.1134 29.7223V29.6753C45.0293 29.6726 44.9457 29.6622 44.8635 29.644C43.7645 29.3509 42.7282 28.859 41.8057 28.1926C40.3417 27.0789 39.1724 25.6228 38.4003 23.9516C37.9252 22.9472 37.5486 21.8989 37.2756 20.8217C37.0941 20.14 36.9738 19.4434 36.9163 18.7403C39.7125 18.7403 42.5086 18.7403 45.2853 18.7403C45.707 18.7403 46.1444 18.7403 46.5662 18.7403C46.5323 20.0001 46.6476 21.2596 46.9098 22.4922C46.9567 22.7583 47.0348 23.0243 47.066 23.306C46.6435 23.2462 46.2416 23.0852 45.8945 22.8365C45.305 22.3323 44.6116 21.9649 43.8637 21.7606C43.7257 21.7131 43.5764 21.7098 43.4365 21.7512C43.2965 21.7926 43.1729 21.8765 43.0827 21.9915C42.995 22.1839 42.9523 22.3939 42.9577 22.6054C42.9631 22.8169 43.0165 23.0244 43.1139 23.2121C43.4999 23.9869 44.0953 24.6376 44.8322 25.0901C45.5895 25.5894 46.402 25.9991 47.2535 26.3107C47.3785 26.342 47.3316 26.4985 47.3472 26.5924C47.3004 27.0775 47.316 27.5783 47.2847 28.0791V28.0674ZM37.5216 27.2379C38.7184 28.6591 40.197 29.8156 41.8636 30.6339C43.5301 31.4522 45.3483 31.9145 47.2027 31.9915C47.5926 32.0236 47.9844 32.0236 48.3743 31.9915C49.694 31.9437 50.9989 31.6957 52.2444 31.2559C54.8816 30.3353 57.1671 28.6148 58.7838 26.3334C60.4004 24.052 61.2678 21.3229 61.2655 18.5251C61.2776 16.7101 60.916 14.9121 60.2033 13.2434C59.1304 10.7304 57.3204 8.6034 55.0132 7.14448C52.7061 5.68557 50.0108 4.96363 47.2847 5.0744C44.7704 5.18048 42.336 5.99056 40.258 7.41269C38.18 8.83483 36.5415 10.8121 35.5285 13.12C34.5155 15.4279 34.1686 17.9741 34.5271 20.4696C34.8856 22.9651 35.9352 25.3099 37.5568 27.2379H37.5216ZM62.9877 15.004C63.2576 14.7226 63.4687 14.39 63.6087 14.0259C63.9237 13.3915 64.3696 12.8315 64.9169 12.3827C65.3085 12.0575 65.7987 11.8754 66.3072 11.8663H78.0229C78.2213 11.8528 78.4206 11.8633 78.6165 11.8976C78.6973 11.9353 78.7661 11.9948 78.815 12.0694C78.864 12.144 78.8913 12.2308 78.8938 12.3201C78.8812 12.7753 78.7463 13.2186 78.5033 13.6033L66.932 35.7513C66.7128 36.2101 66.4622 36.6532 66.1822 37.0775C65.9071 37.4145 65.7289 37.8203 65.6667 38.2512C65.6859 38.3077 65.7214 38.3571 65.7687 38.3933C65.816 38.4296 65.8729 38.4509 65.9323 38.4547C67.2757 38.5016 68.6191 38.4547 69.9625 38.4547C69.9789 38.4569 69.9956 38.4558 70.0116 38.4514C70.0276 38.4471 70.0426 38.4396 70.0557 38.4294C70.0688 38.4192 70.0797 38.4065 70.0879 38.3921C70.096 38.3776 70.1012 38.3616 70.1031 38.3451C73.0241 29.0733 76.6227 20.0295 80.8699 11.2872C81.1441 10.858 81.3944 10.4139 81.6197 9.95702C81.7715 9.6813 81.8671 9.37809 81.9009 9.06501C81.9009 8.90852 81.9321 8.76766 81.9009 8.61117C81.7709 8.49324 81.6296 8.38841 81.4791 8.29818C81.1788 8.19174 80.8585 8.15431 80.5418 8.18865H65.3504C65.1323 8.16537 64.9124 8.16537 64.6943 8.18865C64.5138 8.26633 64.366 8.4047 64.2765 8.57988C64.0507 9.03419 63.8927 9.51929 63.8078 10.0196C63.3861 11.5376 62.9487 13.0713 62.5269 14.5893C62.3863 14.8201 62.7456 15.2583 63.0112 15.0235L62.9877 15.004ZM15.2617 16.1307C15.3633 14.5922 15.9057 13.1156 16.8238 11.878C17.6962 10.8209 18.8938 10.0835 20.2292 9.78098C20.6843 9.66901 21.1481 9.59572 21.6155 9.56189C22.3259 9.49376 23.0425 9.53597 23.74 9.68707C24.9287 10.0131 26.0281 10.6051 26.9555 11.4183C27.8828 12.2314 28.614 13.2447 29.0941 14.3819C29.3443 14.9822 29.5176 15.6119 29.6096 16.2559C29.6991 17.035 29.7252 17.8201 29.6877 18.6034C29.6689 19.7906 29.4415 20.9653 29.016 22.0736C28.7176 22.8273 28.2093 23.4791 27.5515 23.9516C26.5659 24.5707 25.4339 24.9163 24.2711 24.9531C23.8806 25.0001 23.4901 24.9531 23.0995 25.0001C22.7925 25.0159 22.4849 25.0159 22.1779 25.0001C20.9495 24.897 19.7665 24.4867 18.7374 23.8068C17.0082 22.6934 15.7894 20.9393 15.3476 18.9281C15.16 18.0062 15.1283 17.0592 15.2539 16.1268L15.2617 16.1307ZM17.105 25.986C18.0407 26.476 19.0565 26.794 20.1042 26.9249C21.132 27.0347 22.1714 26.9389 23.162 26.6433C24.4882 26.2856 25.7796 25.8089 27.0204 25.2192C27.2907 25.0663 27.5728 24.9355 27.8639 24.8279C27.6436 25.9935 27.2707 27.1248 26.7548 28.1926C25.7915 30.2668 24.5398 32.1938 23.0371 33.9164C21.7972 35.3594 20.3815 36.6409 18.8233 37.7309C18.3078 38.0909 17.7611 38.4038 17.23 38.7481C17.0067 38.8679 16.8387 39.0699 16.7613 39.3115C16.7681 39.44 16.8007 39.5658 16.857 39.6814C16.9134 39.797 16.9924 39.9 17.0894 39.9844H18.0735C18.7437 39.6133 19.3767 39.1783 19.9636 38.6855C21.2719 37.6527 22.5372 36.5572 23.74 35.4187C25.0973 34.1319 26.3852 32.7737 27.5984 31.3498C29.0857 29.6345 30.3809 27.761 31.4607 25.763C32.4917 23.7599 33.2415 21.5415 33.1165 19.2724C33.1138 17.1868 32.6496 15.1278 31.7575 13.2434C31.3169 12.4027 30.7535 11.6326 30.086 10.9586C29.0417 9.96196 27.7732 9.23194 26.3878 8.83026C25.5669 8.59708 24.724 8.45022 23.8728 8.39207C22.1792 8.27068 20.4776 8.45084 18.8467 8.92417C17.471 9.32281 16.2011 10.0231 15.1289 10.9742C13.8988 12.0969 13.0301 13.561 12.6335 15.18C12.3788 16.2031 12.2632 17.2559 12.2898 18.3099C12.281 20.1166 12.8444 21.8795 13.8988 23.3451C14.7366 24.476 15.8336 25.3885 17.0972 26.0055L17.105 25.986Z" fill="#B5B5B5"/>
<path fill-rule="evenodd" clip-rule="evenodd" d="M48.5264 23.1378C48.4873 23.1366 48.4493 23.1506 48.4202 23.1769C48.3911 23.2031 48.3732 23.2395 48.3702 23.2786C48.3707 23.2983 48.3752 23.3177 48.3834 23.3356C48.3916 23.3536 48.4034 23.3696 48.418 23.3828C48.4327 23.396 48.4498 23.406 48.4685 23.4123C48.4871 23.4186 48.5068 23.4211 48.5264 23.4195C48.5656 23.4206 48.6036 23.4066 48.6327 23.3803C48.6618 23.3541 48.6797 23.3177 48.6827 23.2786H48.6358C48.6358 23.2786 48.6358 23.216 48.6358 23.1847C48.5997 23.1771 48.5625 23.1771 48.5264 23.1847V23.1378ZM45.1992 29.5971C45.2383 29.5959 45.2763 29.61 45.3054 29.6362C45.3345 29.6624 45.3524 29.6988 45.3554 29.7379C45.3549 29.7576 45.3504 29.777 45.3422 29.7949C45.334 29.8128 45.3222 29.8289 45.3076 29.8421C45.293 29.8553 45.2758 29.8653 45.2572 29.8716C45.2385 29.8779 45.2188 29.8804 45.1992 29.8788C45.1601 29.8799 45.122 29.8659 45.0929 29.8397C45.0639 29.8134 45.046 29.777 45.043 29.7379H45.0898C45.0898 29.7379 45.0898 29.6753 45.0898 29.644C45.1259 29.6364 45.1631 29.6364 45.1992 29.644" fill="#2B334F"/>
</g>
<defs>
<clipPath id="clip0_249_12189">
<rect width="81.9048" height="40" fill="white"/>
</clipPath>
</defs>
</svg>
