<svg width="165" height="38" viewBox="0 0 165 38" fill="none" xmlns="http://www.w3.org/2000/svg">
<g clip-path="url(#clip0_249_12208)">
<path d="M67.6903 2.06714C74.3686 2.06714 77.1688 4.61747 76.5377 9.50337H72.16C72.3441 6.81881 70.4904 5.70473 66.9015 5.70473C62.5106 5.70473 60.3283 7.27519 59.579 10.7249C58.8296 14.1745 60.3415 15.7987 64.706 15.7987C68.2818 15.7987 70.6219 14.7114 71.6342 11.9598H76.0119C74.5263 16.8591 70.5956 19.4363 63.9173 19.4363C56.529 19.4363 54.0444 16.349 55.267 10.7249C56.4896 5.10069 60.302 2.06714 67.6903 2.06714Z" fill="#B5B5B5"/>
<path d="M83.229 5.69123L82.4928 9.11405H95.9678L95.2842 12.255H81.8092L81.0598 15.6778H94.4822L93.7329 19.1275H75.9854L79.6663 2.24158H97.4007L96.6514 5.69123H83.229Z" fill="#B5B5B5"/>
<path d="M120.946 19.1275H116.634L119.158 7.54359L109.654 19.1275H106.538L102.094 7.54359L99.5703 19.1275H95.2451L98.9261 2.24158H104.75L109.18 14.161L118.803 2.24158H124.627L120.946 19.1275Z" fill="#B5B5B5"/>
<path d="M14.461 28.9128C14.2749 29.9117 13.7256 30.8019 12.9234 31.4044C12.1211 32.007 11.1252 32.2773 10.1358 32.1611H0L2.43207 21.0067H12.1735C14.6976 21.0067 15.184 22.349 14.8028 23.9463C14.593 24.7877 14.1339 25.5425 13.4881 26.1074C13.9206 26.4094 14.2478 26.8438 14.4227 27.3481C14.5976 27.8523 14.611 28.4002 14.461 28.9128ZM11.6345 28.7785C11.8974 27.5973 11.2007 27.5973 10.4382 27.5973H3.86502L3.35231 29.9463H9.92548C10.6748 30 11.3716 30 11.6214 28.8322L11.6345 28.7785ZM4.33829 25.396H10.2278C10.9772 25.396 11.6739 25.396 11.9369 24.2282C12.1998 23.0604 11.4899 23.0873 10.7143 23.0873H4.8247L4.33829 25.396Z" fill="#B5B5B5"/>
<path d="M15.5123 26.6308C16.3142 22.9261 18.8515 20.9127 23.7156 20.9127C28.5798 20.9127 30.2888 22.953 29.4343 26.6308C28.5798 30.3087 26.082 32.3758 21.2178 32.3758C16.3537 32.3758 14.7104 30.3355 15.5123 26.6308ZM26.5947 26.6308C27.0811 24.3624 26.174 23.3154 23.2029 23.3154C20.2319 23.3154 18.8515 24.3489 18.3651 26.6308C17.8787 28.9127 18.7858 29.9731 21.7437 29.9731C24.7016 29.9731 26.0951 28.9127 26.5947 26.6308ZM23.8865 17.2348L23.3738 19.5167H20.5737L21.0864 17.1946L23.8865 17.2348ZM28.0013 17.2348L27.4886 19.5167H24.6885L25.2012 17.1946L28.0013 17.2348Z" fill="#B5B5B5"/>
<path d="M41.1747 29.8121L40.6489 32.2282H29.251L31.683 21.0739H34.5358L32.6296 29.8255L41.1747 29.8121Z" fill="#B5B5B5"/>
<path d="M48.1551 32.3758C43.2778 32.3758 41.5819 30.5234 42.4365 26.6308L43.6459 21.0738H46.4987L45.2892 26.6308C44.9474 28.1879 44.9868 29.9731 48.681 29.9731C52.3751 29.9731 53.1902 28.1745 53.5188 26.6308L54.7283 21.0738H57.581L56.3716 26.6308C55.5302 30.4966 53.0061 32.3758 48.1551 32.3758ZM50.7844 17.1812L50.3111 19.5167H47.5109L48.0105 17.1946L50.7844 17.1812ZM54.8992 17.1812L54.4259 19.5167H51.6257L52.1253 17.1946L54.8992 17.1812Z" fill="#B5B5B5"/>
<path d="M66.0467 26.0269L71.4104 32.2282H67.4665L63.6015 27.5705L59.6576 30.0806L59.158 32.2282H56.3447L58.7768 21.0739H61.6164L60.3018 26.8591L69.5042 21.0739H73.8294L66.0467 26.0269Z" fill="#B5B5B5"/>
<path d="M86.4508 28.9799C86.2647 29.9789 85.7154 30.869 84.9131 31.4716C84.1109 32.0741 83.115 32.3444 82.1256 32.2282H72.0029L74.435 21.0739H84.137C86.6611 21.0739 87.1475 22.4161 86.7663 24C86.5535 24.8439 86.0951 25.6021 85.4516 26.1745C85.8888 26.4728 86.2214 26.9057 86.401 27.4102C86.5807 27.9147 86.5981 28.4646 86.4508 28.9799ZM83.6243 28.8322C83.8872 27.651 83.1905 27.651 82.428 27.651H75.8548L75.3421 30.0135H81.9153C82.6778 30.0135 83.3745 30.0134 83.6243 28.8322ZM76.3281 25.4497H82.2176C82.967 25.4497 83.6637 25.4497 83.9267 24.2819C84.1896 23.1141 83.4797 23.141 82.7041 23.141H76.8276L76.3281 25.4497Z" fill="#B5B5B5"/>
<path d="M97.0331 29.8524H90.4599L88.7509 32.2282H85.6221L93.7597 21.0739H97.6115L100.911 32.2282H97.7561L97.0331 29.8524ZM96.4415 27.7181L95.1269 23.1947L91.8797 27.7181H96.4415Z" fill="#B5B5B5"/>
<path d="M108.471 32.3892L108.155 32.9798C109.167 32.6711 111.047 32.5234 110.719 34.0805C110.324 35.8926 107.695 36.1879 105.315 35.8926L105.618 34.5503C107.616 34.859 108.576 34.5503 108.707 33.9463C108.786 33.557 108.405 33.4362 107.103 33.7181L106.38 32.7919L106.617 32.3892C102.791 32.255 100.727 31.3422 101.358 28.3624H104.211C103.961 29.5436 104.79 30.0805 108.392 30.0805C111.389 30.0805 112.336 29.7449 112.559 28.8724C112.783 28 112.152 27.7852 108.615 27.6107C103.83 27.3825 102.042 26.6174 102.634 24.1207C103.225 21.6241 105.815 20.8859 109.969 20.8859C114.124 20.8859 116.45 21.9328 115.846 24.6979H113.059C113.322 23.463 112.165 23.1677 109.207 23.1677C106.249 23.1677 105.684 23.4362 105.5 24.2684C105.315 25.1006 105.947 25.2885 109.128 25.4765C113.453 25.7181 116.109 25.9463 115.491 28.7785C114.873 31.6107 112.191 32.3087 108.471 32.3892Z" fill="#B5B5B5"/>
<path d="M118.553 32.2282H115.688L118.106 21.0739H120.946L118.553 32.2282Z" fill="#B5B5B5"/>
</g>
<g clip-path="url(#clip1_249_12208)">
<path d="M149.52 23.8548L147.5 25.5066L148.204 23.8548H149.52ZM152.573 11.841L151.808 13.8877L153.89 11.841H152.573ZM148.421 7.67541H139.339L133.856 22.2965H142.941L144.06 19.312H138.161L141.403 10.6599H147.304L148.421 7.67541ZM160.409 19.3102L138.879 37.9964L149.133 10.6564L150.249 7.67188H164.42L151.017 19.3067L160.409 19.3102ZM150.332 15.9608L156.432 10.6723H152.319L150.332 15.9608ZM145.798 28.0487L152.421 22.3018H147.956L145.798 28.0487ZM140.66 17.7342L143.413 13.3077L146.503 12.25H142.499L140.104 18.5963L140.66 17.7342ZM139.11 32.8859C136.861 31.6566 134.91 29.9479 133.394 27.8806C131.877 25.8133 130.833 23.4379 130.335 20.9224C129.838 18.4068 129.898 15.8125 130.512 13.3229C131.126 10.8332 132.28 8.50899 133.89 6.51453C135.501 4.52007 137.53 2.90405 139.833 1.78073C142.137 0.657414 144.659 0.0542117 147.221 0.0137739C149.783 -0.026664 152.323 0.496647 154.66 1.54671C156.998 2.59678 159.077 4.14797 160.749 6.0906H156.677C154.078 3.9918 150.84 2.84711 147.501 2.84711C144.161 2.84711 140.923 3.9918 138.324 6.0906H138.242L138.208 6.18227C136.532 7.55509 135.182 9.28324 134.254 11.2419C133.326 13.2007 132.845 15.341 132.845 17.5086C132.845 17.5632 132.845 17.6179 132.845 17.6725L137.248 8.67142L133.037 19.9343L132.374 21.7394L131.573 23.8795H142.494L139.337 32.2813V32.2901L139.11 32.8859ZM139.746 29.9508L140.803 25.0254L134.338 23.9677C135.552 26.4242 137.425 28.4941 139.748 29.9455L139.746 29.9508ZM165 17.5086C165.002 20.026 164.462 22.5144 163.416 24.8038C162.369 27.0932 160.842 29.1298 158.938 30.7747C157.034 32.4196 154.797 33.634 152.381 34.3351C149.965 35.0363 147.427 35.2076 144.939 34.8374L148.018 32.1649L150.154 30.3051L161.447 20.5054L164.648 17.7272H162.148C162.148 17.6549 162.148 17.5844 162.148 17.5121C162.149 16.0239 161.922 14.5442 161.477 13.1244C160.021 14.8343 158.382 16.378 156.587 17.7272H155.271L161.26 12.5091L163.533 10.5365C164.497 12.7344 164.996 15.1082 165 17.5086ZM161.799 20.6923C159.795 23.3189 154.988 28.9777 148.712 32.1173C151.823 31.8549 154.77 30.606 157.124 28.5522C159.478 26.4984 161.115 23.7469 161.799 20.6976V20.6923Z" fill="#B5B5B5"/>
</g>
<defs>
<clipPath id="clip0_249_12208">
<rect width="124.667" height="34" fill="white" transform="translate(0 2)"/>
</clipPath>
<clipPath id="clip1_249_12208">
<rect width="35" height="38" fill="white" transform="translate(130)"/>
</clipPath>
</defs>
</svg>
