<svg width="176" height="47" viewBox="0 0 176 47" fill="none" xmlns="http://www.w3.org/2000/svg">
<g clip-path="url(#clip0_160_2492)">
<path d="M67.6905 7.06689C74.3688 7.06689 77.169 9.61722 76.538 14.5031H72.1602C72.3443 11.8186 70.4907 10.7045 66.9017 10.7045C62.5108 10.7045 60.3285 12.2749 59.5792 15.7246C58.8299 19.1743 60.3417 20.7984 64.7063 20.7984C68.2821 20.7984 70.6221 19.7112 71.6344 16.9595H76.0121C74.5266 21.8588 70.5958 24.436 63.9175 24.436C56.5293 24.436 54.0446 21.3488 55.2672 15.7246C56.4898 10.1004 60.3023 7.06689 67.6905 7.06689Z" fill="#2E2C56"/>
<path d="M83.2295 10.6914L82.4933 14.1142H95.9683L95.2847 17.2551H81.8097L81.0603 20.6779H94.4827L93.7334 24.1276H75.9858L79.6668 7.2417H97.4012L96.6519 10.6914H83.2295Z" fill="#2E2C56"/>
<path d="M120.946 24.1276H116.634L119.158 12.5437L109.654 24.1276H106.538L102.094 12.5437L99.5703 24.1276H95.2451L98.9261 7.2417H104.75L109.18 19.1611L118.803 7.2417H124.627L120.946 24.1276Z" fill="#2E2C56"/>
<path d="M14.461 33.9129C14.2749 34.9119 13.7256 35.802 12.9234 36.4045C12.1211 37.0071 11.1252 37.2774 10.1358 37.1612H0L2.43207 26.0068H12.1735C14.6976 26.0068 15.184 27.3491 14.8028 28.9464C14.593 29.7879 14.1339 30.5426 13.4881 31.1075C13.9206 31.4095 14.2478 31.8439 14.4227 32.3482C14.5976 32.8524 14.611 33.4004 14.461 33.9129ZM11.6345 33.7786C11.8974 32.5974 11.2007 32.5974 10.4382 32.5974H3.86502L3.35231 34.9464H9.92548C10.6748 35.0001 11.3716 35.0001 11.6214 33.8323L11.6345 33.7786ZM4.33829 30.3961H10.2278C10.9772 30.3961 11.6739 30.3961 11.9369 29.2283C12.1998 28.0605 11.4899 28.0874 10.7143 28.0874H4.8247L4.33829 30.3961Z" fill="#2E2C56"/>
<path d="M15.5127 31.6311C16.3146 27.9264 18.8519 25.9129 23.716 25.9129C28.5801 25.9129 30.2892 27.9532 29.4346 31.6311C28.5801 35.3089 26.0823 37.376 21.2182 37.376C16.354 37.376 14.7108 35.3358 15.5127 31.6311ZM26.595 31.6311C27.0815 29.3626 26.1744 28.3156 23.2033 28.3156C20.2322 28.3156 18.8519 29.3492 18.3654 31.6311C17.879 33.9129 18.7861 34.9733 21.744 34.9733C24.702 34.9733 26.0955 33.9129 26.595 31.6311ZM23.8869 22.2351L23.3742 24.517H20.574L21.0867 22.1948L23.8869 22.2351ZM28.0017 22.2351L27.489 24.517H24.6888L25.2015 22.1948L28.0017 22.2351Z" fill="#2E2C56"/>
<path d="M41.1743 34.812L40.6485 37.2281H29.2506L31.6827 26.0737H34.5354L32.6292 34.8254L41.1743 34.812Z" fill="#2E2C56"/>
<path d="M48.155 37.3758C43.2777 37.3758 41.5818 35.5234 42.4363 31.6308L43.6458 26.0738H46.4986L45.2891 31.6308C44.9473 33.1879 44.9867 34.9731 48.6808 34.9731C52.375 34.9731 53.19 33.1745 53.5187 31.6308L54.7282 26.0738H57.5809L56.3714 31.6308C55.5301 35.4966 53.006 37.3758 48.155 37.3758ZM50.7843 22.1812L50.311 24.5167H47.5108L48.0104 22.1946L50.7843 22.1812ZM54.8991 22.1812L54.4258 24.5167H51.6256L52.1252 22.1946L54.8991 22.1812Z" fill="#2E2C56"/>
<path d="M66.0472 31.0268L71.4109 37.2281H67.467L63.602 32.5704L59.6581 35.0804L59.1585 37.2281H56.3452L58.7773 26.0737H61.6169L60.3023 31.859L69.5047 26.0737H73.8298L66.0472 31.0268Z" fill="#2E2C56"/>
<path d="M86.4503 33.9798C86.2642 34.9788 85.7149 35.8689 84.9127 36.4714C84.1104 37.074 83.1145 37.3443 82.1251 37.2281H72.0024L74.4345 26.0737H84.1365C86.6606 26.0737 87.147 27.416 86.7658 28.9999C86.553 29.8438 86.0946 30.602 85.4511 31.1744C85.8883 31.4727 86.2209 31.9055 86.4005 32.4101C86.5802 32.9146 86.5976 33.4645 86.4503 33.9798ZM83.6238 33.8321C83.8867 32.6509 83.19 32.6509 82.4275 32.6509H75.8543L75.3416 35.0133H81.9148C82.6773 35.0133 83.374 35.0133 83.6238 33.8321ZM76.3276 30.4496H82.2171C82.9665 30.4496 83.6632 30.4496 83.9262 29.2818C84.1891 28.114 83.4792 28.1408 82.7036 28.1408H76.8272L76.3276 30.4496Z" fill="#2E2C56"/>
<path d="M97.0331 34.8522H90.4599L88.7509 37.2281H85.6221L93.7597 26.0737H97.6115L100.911 37.2281H97.7561L97.0331 34.8522ZM96.4415 32.718L95.1269 28.1945L91.8797 32.718H96.4415Z" fill="#2E2C56"/>
<path d="M108.47 37.3891L108.155 37.9797C109.167 37.671 111.047 37.5233 110.718 39.0804C110.324 40.8925 107.695 41.1877 105.315 40.8924L105.618 39.5502C107.616 39.8589 108.576 39.5502 108.707 38.9461C108.786 38.5569 108.405 38.4361 107.103 38.718L106.38 37.7918L106.617 37.3891C102.791 37.2549 100.727 36.3421 101.358 33.3622H104.211C103.961 34.5434 104.789 35.0804 108.391 35.0804C111.389 35.0804 112.335 34.7448 112.559 33.8723C112.782 32.9998 112.151 32.7851 108.615 32.6106C103.83 32.3824 102.042 31.6173 102.633 29.1206C103.225 26.624 105.815 25.8857 109.969 25.8857C114.123 25.8857 116.45 26.9327 115.845 29.6978H113.058C113.321 28.4629 112.165 28.1676 109.207 28.1676C106.249 28.1676 105.683 28.4361 105.499 29.2683C105.315 30.1005 105.946 30.2884 109.128 30.4763C113.453 30.718 116.108 30.9461 115.491 33.7783C114.873 36.6106 112.191 37.3085 108.47 37.3891Z" fill="#2E2C56"/>
<path d="M118.554 37.2281H115.688L118.107 26.0737H120.946L118.554 37.2281Z" fill="#2E2C56"/>
</g>
<g clip-path="url(#clip1_160_2492)">
<path d="M156.982 29.5045L154.5 31.5475L155.366 29.5045H156.982ZM160.732 14.6453L159.793 17.1767L162.351 14.6453H160.732ZM155.632 9.49308H144.474L137.737 27.5771H148.899L150.274 23.8857H143.026L147.01 13.1844H154.26L155.632 9.49308ZM170.36 23.8835L143.909 46.9954L156.506 13.1801L157.878 9.48872H175.288L158.822 23.8792L170.36 23.8835ZM157.98 19.7408L165.474 13.1997H160.421L157.98 19.7408ZM152.409 34.6916L160.546 27.5836H155.06L152.409 34.6916ZM146.097 21.9343L149.479 16.4594L153.275 15.1511H148.356L145.413 23.0005L146.097 21.9343ZM144.193 40.6745C141.43 39.154 139.032 37.0406 137.169 34.4837C135.307 31.9268 134.024 28.9888 133.412 25.8775C132.801 22.7661 132.875 19.5574 133.629 16.4781C134.384 13.3988 135.801 10.5241 137.78 8.05726C139.759 5.59043 142.251 3.59167 145.081 2.2023C147.911 0.812935 151.009 0.0668682 154.157 0.016853C157.305 -0.0331623 160.425 0.614091 163.297 1.91286C166.169 3.21162 168.723 5.1302 170.778 7.53293H165.775C162.582 4.93705 158.604 3.52124 154.501 3.52124C150.399 3.52124 146.42 4.93705 143.227 7.53293H143.126L143.085 7.64631C141.025 9.34428 139.366 11.4817 138.227 13.9043C137.087 16.3269 136.496 18.9743 136.495 21.6552C136.495 21.7228 136.495 21.7904 136.495 21.8579L141.905 10.725L136.731 24.6554L135.917 26.8881L134.932 29.535H148.35L144.472 39.9267V39.9376L144.193 40.6745ZM144.974 37.0442L146.272 30.9523L138.33 29.644C139.821 32.6824 142.122 35.2425 144.976 37.0377L144.974 37.0442ZM176 21.6552C176.003 24.7689 175.339 27.8465 174.054 30.6782C172.768 33.5098 170.892 36.0288 168.552 38.0632C166.213 40.0977 163.465 41.5998 160.497 42.467C157.529 43.3341 154.41 43.546 151.353 43.0882L155.136 39.7828L157.761 37.4825L171.635 25.3618L175.567 21.9255H172.496C172.496 21.8361 172.496 21.7489 172.496 21.6595C172.497 19.8188 172.219 17.9888 171.672 16.2326C169.884 18.3475 167.869 20.2568 165.664 21.9255H164.048L171.406 15.4717L174.197 13.0318C175.382 15.7503 175.996 18.6862 176 21.6552ZM172.068 25.5929C169.605 28.8417 163.699 35.8406 155.989 39.7239C159.812 39.3993 163.432 37.8546 166.324 35.3144C169.216 32.7742 171.228 29.371 172.068 25.5995V25.5929Z" fill="#2E2C56"/>
</g>
<defs>
<clipPath id="clip0_160_2492">
<rect width="124.667" height="34" fill="white" transform="translate(0 7)"/>
</clipPath>
<clipPath id="clip1_160_2492">
<rect width="43" height="47" fill="white" transform="translate(133)"/>
</clipPath>
</defs>
</svg>
