<svg width="72" height="14" viewBox="0 0 72 14" fill="none" xmlns="http://www.w3.org/2000/svg">
<path d="M24.19 10.5118C24.19 9.78234 24.472 9.68341 25.019 9.68341C25.5331 9.68462 26.0444 9.76001 26.537 9.90724V11.3901C25.8892 11.5521 25.2165 11.5888 24.555 11.4981C24.14 11.3901 24.174 10.8595 24.19 10.5118ZM28.89 7.66892C28.89 5.5645 27.746 4.27946 25.382 4.27946C24.8814 4.28034 24.3818 4.32481 23.889 4.41236L23.06 4.57824C22.795 4.6282 22.712 4.90999 22.778 5.19178C22.844 5.47357 23.11 6.65868 23.441 6.60872L24.403 6.45983C24.7155 6.40862 25.0313 6.3809 25.348 6.37689C26.177 6.37689 26.448 7.08936 26.501 7.9677C25.7665 7.81865 25.0194 7.74101 24.27 7.73587C22.006 7.73587 21.782 9.11983 21.782 10.5787C21.782 12.3024 22.263 13.3876 24.27 13.3876C25.215 13.3876 28.839 13.3047 28.839 11.9207L28.89 7.66892ZM32.929 11.1663V6.84054C33.4987 6.58079 34.1118 6.42899 34.737 6.39288C35.566 6.39288 35.566 6.74961 35.566 7.51204V10.1101C35.566 10.3339 35.566 10.9804 35.251 11.1713C34.4915 11.3897 33.6855 11.3879 32.927 11.1663H32.929ZM35.417 13.4206C37.905 13.4206 37.905 11.8378 37.905 10.1061V7.61996C37.905 5.87926 37.905 4.30544 35.417 4.30544C34.5676 4.34908 33.7293 4.51743 32.929 4.80507V1.48755C32.929 1.22275 32.629 1.05688 32.315 1.05688C32.001 1.05688 30.573 1.05688 30.573 1.43759V11.9537C30.5649 12.1084 30.6052 12.2618 30.6884 12.3925C30.7715 12.5232 30.8934 12.6248 31.037 12.6832C32.148 13.3547 34.462 13.4206 35.416 13.4206H35.417ZM41.417 10.5118C41.417 9.78234 41.699 9.68341 42.246 9.68341C42.7434 9.68813 43.2377 9.76349 43.714 9.90724V11.3901C43.069 11.5521 42.3988 11.5887 41.74 11.4981C41.359 11.3901 41.392 10.8595 41.408 10.5118H41.417ZM46.111 7.66892C46.111 5.5645 44.967 4.27946 42.603 4.27946C42.1001 4.28044 41.5982 4.3249 41.103 4.41236L40.274 4.57824C40.009 4.6282 39.926 4.90999 39.992 5.19178C40.058 5.47357 40.324 6.65868 40.655 6.60872L41.625 6.45983C41.9374 6.40862 42.2533 6.3809 42.57 6.37689C43.399 6.37689 43.665 7.08936 43.714 7.9677C42.9823 7.81803 42.2378 7.74038 41.491 7.73587C39.227 7.73587 39.003 9.11983 39.003 10.5787C39.003 12.3024 39.484 13.3876 41.491 13.3876C42.436 13.3876 46.06 13.3047 46.06 11.9207L46.111 7.66892ZM15.427 11.1333V6.83655C15.9961 6.57493 16.6095 6.42305 17.235 6.38888C18.064 6.38888 18.064 6.74561 18.064 7.50804V10.1061C18.064 10.3299 18.064 10.9764 17.749 11.1673C16.9981 11.3875 16.1998 11.3875 15.449 11.1673L15.427 11.1333ZM17.915 13.3876C20.403 13.3876 20.403 11.8048 20.403 10.0731V7.58698C20.403 5.84629 20.403 4.27247 17.915 4.27247C17.0654 4.31453 16.2268 4.48292 15.427 4.77209V1.45158C15.427 1.18678 15.127 1.0209 14.805 1.0209C14.483 1.0209 13.063 1.0209 13.063 1.40162V11.9537C13.0549 12.1084 13.0952 12.2618 13.1784 12.3925C13.2615 12.5232 13.3834 12.6248 13.527 12.6832C14.9515 13.2397 16.4771 13.4909 18.005 13.4206L17.915 13.3876ZM2.91497 7.99168H6.64697C6.99497 7.99168 7.01197 6.74062 7.01197 6.33392C7.01197 5.92723 6.84597 5.75336 6.59697 5.75336H2.90997V3.26922H7.60397C7.95197 3.26922 7.97697 2.02615 7.97697 1.61146C7.97697 1.19677 7.80297 1.0309 7.55397 1.0309H1.01097C0.695971 1.0309 0.396973 1.19677 0.396973 1.46157V12.932C0.396973 13.2967 1.85697 13.3956 2.29697 13.3956C2.44465 13.4006 2.58896 13.3509 2.70226 13.2561C2.81556 13.1614 2.88988 13.0282 2.91097 12.882L2.91497 7.99168ZM11.44 12.964V4.72713C11.44 4.46233 11.14 4.29645 10.826 4.29645C10.512 4.29645 8.93497 4.29645 8.93497 4.67716V13.0139C8.93497 13.3786 10.395 13.4036 10.826 13.4036C11.257 13.4036 11.44 13.2377 11.44 12.9729V12.964ZM8.94697 3.12832C8.94697 3.49305 10.257 3.50904 10.689 3.50904C11.121 3.50904 11.303 3.34316 11.303 3.07836V1.4216C11.303 1.14781 11.003 0.981934 10.689 0.981934C10.375 0.981934 8.94697 0.981933 8.94697 1.37164V3.12832ZM52.627 7.32118V13.0169C52.627 13.3816 53.937 13.4066 54.369 13.4066C54.801 13.4066 54.983 13.2328 54.983 12.967V7.61996C54.983 5.90424 54.883 4.37939 52.495 4.37939C49.866 4.37939 47.668 5.31569 47.668 5.94521V13.0229C47.668 13.3956 48.987 13.4126 49.418 13.4126C49.849 13.4126 50.032 13.2467 50.032 12.9729V6.84054C50.6168 6.60913 51.2304 6.45852 51.856 6.39288C52.296 6.39288 52.656 6.55076 52.656 7.32918L52.627 7.32118ZM59.261 8.14956V1.52053C59.261 1.25573 58.954 1.08985 58.639 1.08985C58.324 1.08985 56.897 1.08985 56.897 1.45458V13.0559C56.897 13.4206 58.207 13.4366 58.639 13.4366C59.071 13.4366 59.261 13.2707 59.261 13.0059V8.86303L61.898 12.948C62.205 13.4206 63.258 13.4116 63.557 13.4116C64.287 13.4116 64.619 13.2627 64.619 12.9969C64.619 12.7311 64.619 12.8061 64.219 12.2345L61.731 8.42236L63.597 5.40562C63.838 5.0249 64.037 4.80607 64.037 4.57724C64.037 4.34841 63.705 4.17754 62.959 4.17754C62.544 4.17754 61.707 4.17754 61.441 4.61721L59.261 8.14956ZM67.289 10.5118C67.289 9.78234 67.5709 9.68341 68.1179 9.68341C68.6322 9.68369 69.1436 9.7591 69.636 9.90724V11.3901C68.9909 11.5519 68.3208 11.5885 67.662 11.4981C67.247 11.3901 67.281 10.8595 67.297 10.5118H67.289ZM71.999 7.66892C71.999 5.5645 70.855 4.27946 68.491 4.27946C67.9904 4.28034 67.4908 4.32481 66.998 4.41236L66.169 4.57824C65.904 4.6282 65.821 4.90999 65.887 5.19178C65.953 5.47357 66.219 6.65868 66.55 6.60872L67.512 6.45983C67.8244 6.40862 68.1403 6.3809 68.457 6.37689C69.286 6.37689 69.557 7.08936 69.61 7.9677C68.8756 7.81808 68.1284 7.74044 67.379 7.73587C65.123 7.73587 64.891 9.11983 64.891 10.5787C64.891 12.3024 65.372 13.3876 67.379 13.3876C68.324 13.3876 71.948 13.3047 71.948 11.9207L71.999 7.66892Z" fill="#2E2C56"/>
</svg>
