<svg width="100" height="21" viewBox="0 0 100 21" fill="none" xmlns="http://www.w3.org/2000/svg">
<path d="M37.879 16.1063C37.8243 15.4213 38.0216 14.7399 38.4338 14.1899C38.846 13.6398 39.4448 13.2589 40.118 13.1185C40.9877 12.9064 41.8822 12.8132 42.777 12.8418V12.0094C42.7651 11.8653 42.725 11.725 42.6588 11.5964C42.5926 11.4679 42.5016 11.3537 42.3912 11.2603C42.2807 11.1669 42.1529 11.0962 42.0151 11.0523C41.8773 11.0083 41.7321 10.992 41.588 11.0041C40.8013 11.0599 40.0227 11.1982 39.265 11.4168L39.692 9.68212C40.469 9.49947 41.263 9.399 42.061 9.38235C42.4406 9.36752 42.8188 9.43579 43.1692 9.58238C43.5196 9.72896 43.8337 9.95032 44.0894 10.2309C44.3452 10.5116 44.5365 10.8447 44.6499 11.207C44.7633 11.5692 44.7961 11.9519 44.746 12.3281V18.2467H42.846V17.84H42.517C41.9878 18.2086 41.358 18.4056 40.713 18.4046C39.62 18.4046 37.879 18.0439 37.879 16.1063ZM41.288 14.1518C40.8839 14.1662 40.5009 14.3359 40.2191 14.6256C39.9372 14.9153 39.7781 15.3026 39.775 15.7066C39.7821 15.8808 39.8251 16.0516 39.9013 16.2084C39.9775 16.3652 40.0854 16.5046 40.218 16.6179C40.3507 16.7311 40.5053 16.8157 40.6722 16.8665C40.8391 16.9172 41.0147 16.9329 41.188 16.9127C42.241 16.9127 42.723 16.3681 42.723 16.0324V14.1408C42.723 14.1408 42.295 14.1518 41.288 14.1518ZM30.45 16.1063C30.3951 15.4214 30.5921 14.74 31.0041 14.19C31.4162 13.6399 32.0149 13.2589 32.688 13.1185C33.5577 12.9064 34.4522 12.8133 35.347 12.8418V12.0094C35.323 11.7191 35.1848 11.4503 34.9626 11.2618C34.7404 11.0733 34.4525 10.9806 34.162 11.0041C33.375 11.0599 32.596 11.1982 31.838 11.4168L32.266 9.68212C33.0429 9.49941 33.837 9.39893 34.635 9.38235C35.0146 9.36752 35.3928 9.43579 35.7432 9.58238C36.0936 9.72896 36.4077 9.95032 36.6634 10.2309C36.9192 10.5116 37.1105 10.8447 37.2239 11.207C37.3373 11.5692 37.3701 11.9519 37.32 12.3281V18.2467H35.42V17.84H35.098C34.5669 18.2093 33.935 18.4064 33.288 18.4046C32.188 18.4046 30.45 18.0439 30.45 16.1063ZM33.857 14.1488C33.4526 14.1635 33.0696 14.3338 32.788 14.6241C32.5064 14.9144 32.348 15.3023 32.346 15.7066C32.354 15.8802 32.3977 16.0503 32.4743 16.2062C32.551 16.3622 32.6589 16.5008 32.7915 16.6133C32.924 16.7257 33.0783 16.8098 33.2448 16.8601C33.4112 16.9104 33.5863 16.9259 33.759 16.9057C34.812 16.9057 35.294 16.3611 35.294 16.0254V14.1408C35.294 14.1408 34.866 14.1518 33.857 14.1518V14.1488ZM88.62 18.3686V17.7051C87.9821 18.104 87.2526 18.3328 86.501 18.3696C85.394 18.3696 83.421 17.9399 83.421 15.8365C83.4077 15.4342 83.4782 15.0335 83.628 14.6599C83.7778 14.2862 84.0037 13.9478 84.2913 13.6659C84.5789 13.3841 84.9219 13.165 85.2987 13.0227C85.6755 12.8803 86.0777 12.8176 86.48 12.8388H88.51V11.7006C88.51 11.133 87.817 10.4016 86.51 10.6384C85.7554 10.7736 85.024 11.0159 84.338 11.3579L84.491 10.0588C85.3672 9.67847 86.3049 9.45912 87.259 9.41133C87.6016 9.39797 87.9433 9.45306 88.2643 9.57335C88.5853 9.69364 88.8791 9.87673 89.1284 10.1119C89.3777 10.347 89.5775 10.6295 89.7162 10.9428C89.8549 11.2561 89.9296 11.5939 89.936 11.9364V18.3696L88.62 18.3686ZM84.758 15.6237C84.758 16.3761 84.803 17.3764 86.404 17.3764C86.6955 17.3894 86.9864 17.3388 87.2563 17.2281C87.5263 17.1174 87.7689 16.9492 87.9672 16.7353C88.1656 16.5214 88.3149 16.267 88.4048 15.9896C88.4948 15.7122 88.5231 15.4185 88.488 15.129V13.7301H87.04C85.263 13.7331 84.758 14.8722 84.758 15.6237V15.6237ZM66.758 18.3726V17.7051C66.1197 18.1039 65.3899 18.3327 64.638 18.3696C63.531 18.3696 61.558 17.9399 61.558 15.8365C61.5448 15.4342 61.6155 15.0335 61.7654 14.6598C61.9153 14.2862 62.1413 13.9477 62.4289 13.6659C62.7166 13.3841 63.0597 13.165 63.4365 13.0227C63.8134 12.8803 64.2157 12.8176 64.618 12.8388H66.648V11.7006C66.648 11.133 65.955 10.4016 64.648 10.6384C63.8934 10.7736 63.162 11.0159 62.476 11.3579L62.629 10.0588C63.5046 9.67874 64.4416 9.4594 65.395 9.41133C65.7376 9.39797 66.0793 9.45306 66.4003 9.57335C66.7213 9.69364 67.0151 9.87673 67.2644 10.1119C67.5137 10.347 67.7135 10.6295 67.8522 10.9428C67.9909 11.2561 68.0656 11.5939 68.072 11.9364V18.3696L66.758 18.3726ZM62.893 15.6237C62.893 16.3761 62.938 17.3764 64.539 17.3764C64.8306 17.3895 65.1216 17.339 65.3916 17.2284C65.6617 17.1177 65.9044 16.9496 66.1029 16.7357C66.3014 16.5218 66.4508 16.2673 66.5408 15.9898C66.6308 15.7123 66.6592 15.4186 66.624 15.129V13.7301H65.176C63.4 13.7331 62.893 14.8722 62.893 15.6237V15.6237ZM90.911 17.5352L91.35 16.3851C92.0661 16.8158 92.8833 17.0499 93.719 17.0636C95.057 17.0636 95.519 16.2472 95.519 15.7955C95.519 15.3439 95.212 14.8722 93.633 14.5065C92.054 14.1408 91.133 13.2604 91.133 11.7995C91.198 11.1257 91.5281 10.5051 92.0506 10.0742C92.5732 9.64331 93.2455 9.43724 93.92 9.50126C94.7922 9.52018 95.6496 9.73103 96.431 10.1188L96.114 11.154C95.5322 10.9146 94.9157 10.7698 94.288 10.7253C93.498 10.7253 92.643 11.0681 92.643 11.7776C92.643 12.487 93.169 12.9767 94.355 13.2165C95.541 13.4563 96.945 14.3346 96.945 15.6067C96.8622 16.3536 96.5037 17.0429 95.9395 17.5397C95.3753 18.0366 94.646 18.3054 93.894 18.2937C92.8528 18.2866 91.829 18.0263 90.911 17.5352V17.5352ZM73.863 18.2747V12.1383C73.863 11.7256 73.837 10.9782 72.679 10.9782C71.521 10.9782 70.494 11.8285 70.494 12.3701V18.2757H68.994V9.64715L70.416 9.35337V10.4885C70.7359 10.1368 71.1264 9.85629 71.5619 9.6652C71.9974 9.47411 72.4683 9.37672 72.944 9.37935C73.556 9.39313 74.1433 9.62359 74.6011 10.0297C75.059 10.4357 75.3577 10.9911 75.444 11.5967V18.2747H73.863ZM53.196 18.2557V6.49152H56.981C58.816 6.49152 60.601 7.49077 60.601 9.16651C60.547 9.72082 60.3717 10.2565 60.0874 10.7355C59.8031 11.2145 59.4168 11.6252 58.956 11.9384C59.5836 12.1322 60.1329 12.5212 60.5238 13.0487C60.9147 13.5763 61.1267 14.2148 61.129 14.8712C61.1467 15.681 60.8705 16.4699 60.3514 17.092C59.8323 17.7141 59.1054 18.1275 58.305 18.2557H53.196ZM54.744 16.8857H57.444C57.7135 16.9147 57.9861 16.8887 58.2452 16.8092C58.5044 16.7297 58.7446 16.5984 58.9514 16.4233C59.1582 16.2481 59.3272 16.0328 59.4482 15.7904C59.5691 15.548 59.6395 15.2836 59.655 15.0131C59.682 14.741 59.6538 14.4663 59.5721 14.2053C59.4904 13.9444 59.3569 13.7025 59.1795 13.4943C59.0021 13.2861 58.7846 13.1158 58.5398 12.9935C58.295 12.8713 58.0281 12.7996 57.755 12.7828H54.735L54.744 16.8857ZM54.793 11.4228H57.212C57.4571 11.4318 57.7014 11.3914 57.9305 11.3039C58.1596 11.2164 58.3687 11.0837 58.5453 10.9136C58.7219 10.7436 58.8624 10.5398 58.9584 10.3143C59.0544 10.0888 59.1039 9.84624 59.104 9.60118C59.0921 9.34973 59.0299 9.10321 58.9211 8.8762C58.8122 8.64919 58.6589 8.44631 58.4702 8.27954C58.2815 8.11278 58.0612 7.98552 57.8224 7.90531C57.5836 7.82509 57.3312 7.79354 57.08 7.81253H54.793V11.4228ZM76.418 18.2497V6.46554H78.101V12.8088H78.443L81.343 9.19949H83.476L79.709 13.2604L83.868 18.1728H81.568L78.448 13.6861H78.079V18.2507L76.418 18.2497ZM14.188 18.2457V16.47L19.3 8.27618H14.627L15.154 6.41357H22.088V8.2532L16.953 16.47H22.064L21.34 18.2457H14.188ZM97.773 18.2397V9.61817H99.188V18.2397H97.773ZM23.003 18.2397V9.61817H24.895V18.2397H23.003ZM48.03 18.2237C47.5679 18.2397 47.1182 18.0723 46.7791 17.7582C46.44 17.4441 46.239 17.0086 46.22 16.547V10.9722H45.331V9.65015H46.288V7.36186H48.117V9.68212H50.223L49.748 11.0041H48.142V15.9554C48.142 16.5999 48.261 16.9677 48.886 16.9677H49.972V18.2247L48.03 18.2237ZM26.58 18.2237V9.65015H28.153V10.6174C28.5119 10.2514 28.9599 9.98488 29.453 9.844C29.9186 9.72843 30.4044 9.71955 30.874 9.81802V11.4678H29.634C29.134 11.4678 28.213 12.1383 28.213 12.7828V18.2237H26.58ZM22.746 7.80153C22.7549 7.49489 22.8831 7.20379 23.1033 6.99005C23.3236 6.7763 23.6185 6.65674 23.9255 6.65674C24.2325 6.65674 24.5274 6.7763 24.7476 6.99005C24.9679 7.20379 25.0961 7.49489 25.105 7.80153C25.0961 8.10818 24.9679 8.39928 24.7476 8.61302C24.5274 8.82676 24.2325 8.94633 23.9255 8.94633C23.6185 8.94633 23.3236 8.82676 23.1033 8.61302C22.8831 8.39928 22.7549 8.10818 22.746 7.80153V7.80153Z" fill="#2E2C56"/>
<path d="M5.139 17.4743L5.645 17.0746V15.4389L5.139 15.8386V12.3142L5.645 11.9215V10.2867L5.139 10.6784V7.15308L6.118 6.38465L7.587 5.22352L9.537 3.69367V10.1798C9.54669 10.3365 9.51754 10.4932 9.45213 10.636C9.38671 10.7787 9.28706 10.9031 9.162 10.9982C9.26786 11.0682 9.35655 11.1612 9.42148 11.2701C9.48641 11.3791 9.52589 11.5014 9.537 11.6277V17.5403L7.587 19.0701L6.118 20.2313L5.139 20.9997V17.4743ZM8.339 13.3284L7.589 13.909L6.341 14.8983V16.534L7.589 15.5438L8.454 14.8653C8.723 14.6525 8.846 14.5136 8.846 14.2018V13.4504C8.846 13.2865 8.758 13.2025 8.634 13.2025C8.52413 13.2088 8.41953 13.2517 8.337 13.3245L8.339 13.3284ZM8.339 8.16732L7.589 8.74788L6.341 9.73814V11.3729L7.589 10.3837L8.454 9.70416C8.723 9.49132 8.846 9.35343 8.846 9.04166V8.29122C8.846 8.12735 8.758 8.04241 8.634 8.04241C8.5236 8.0496 8.4189 8.09398 8.337 8.16832L8.339 8.16732ZM3.418 20.2313L0 17.5403V14.0149L0.929 13.1066L0 12.3802V8.8548L2.912 11.1451L3.418 10.6455L3.826 10.2368L3.418 9.917L0 7.21903V3.69367L3.418 6.38565L4.389 7.15408V10.6784L3.475 11.5868L4.389 12.3142V15.8396L3.418 15.0711L1.493 13.5493L0.571 14.4576L3.418 16.7059L4.389 17.4743V20.9997L3.418 20.2313ZM5.139 2.30371L6.118 1.5183L7.089 0.733887V1.99294L6.118 2.77736L5.833 3.00718V4.3242L6.118 4.09537L7.089 3.31695V4.57601L6.118 5.36242L5.139 6.14683V2.30371ZM3.418 5.43037L2.831 4.94773V3.68567L3.076 3.88553V2.50056L2.447 1.99294V0.733887L3.418 1.5183L4.389 2.30371V3.56377L3.761 3.05715V4.4471L4.014 4.64695V5.91001L3.418 5.43037Z" fill="#E50019"/>
</svg>
