<svg width="78" height="25" viewBox="0 0 78 25" fill="none" xmlns="http://www.w3.org/2000/svg">
<g clip-path="url(#clip0_161_16)">
<path fill-rule="evenodd" clip-rule="evenodd" d="M0 12.521L2.355 24.7368L3.92101 24.7608H4.58299L11.314 12.522H8.76199L3.91701 22.1697L2.91 12.523H0V12.521Z" fill="#2E2C56"/>
<path fill-rule="evenodd" clip-rule="evenodd" d="M16.317 24.59C16.699 22.5915 17.062 20.6649 17.444 18.6634C17.699 16.9527 16.8539 16.0554 15.2559 15.7137C13.7724 15.3511 12.2108 15.4852 10.8109 16.0954L10.151 17.4833C11.2935 17.0134 12.5319 16.8229 13.763 16.9277C15.0376 17.061 15.4659 17.7202 15.0479 18.9053C11.8479 18.9472 9.46195 19.6257 8.51895 21.4384C8.35155 21.8542 8.31841 22.3119 8.4242 22.7475C8.53 23.183 8.76941 23.5747 9.10894 23.8676C10.1975 24.5034 11.4502 24.8028 12.7089 24.7279C13.9147 24.7548 15.1209 24.7084 16.3209 24.589L16.317 24.59ZM14.8399 19.8446L14.1569 23.6867C13.0569 23.6707 10.7569 23.9145 10.6409 22.3217C10.675 21.8249 10.8686 21.3524 11.1929 20.9744C11.5171 20.5963 11.9549 20.3329 12.4409 20.2233C13.2187 19.9828 14.0269 19.8553 14.8409 19.8446H14.8399Z" fill="#2E2C56"/>
<path fill-rule="evenodd" clip-rule="evenodd" d="M19.987 12.521L17.647 24.7608H20.078L20.943 20.2382L23.751 24.7608H26.494L23.271 19.9474L27.716 15.9225L25.25 15.8875L21.023 19.8145L22.417 12.52L19.987 12.521Z" fill="#2E2C56"/>
<path fill-rule="evenodd" clip-rule="evenodd" d="M28.9109 15.9224L27.2209 24.7607H29.414L31.1039 15.9224H28.9109Z" fill="#2E2C56"/>
<path fill-rule="evenodd" clip-rule="evenodd" d="M33.9919 14.986L33.8049 15.9633H32.2869L32.0239 17.2363H33.5619L32.1229 24.7617H34.5539C35.0269 22.2556 35.4829 19.7484 35.9479 17.2423H37.7169L37.9799 15.9693H36.1859L36.2679 15.5356L36.3619 15.036C36.4619 13.691 37.5159 13.1754 39.1469 13.4102L39.2019 13.3603C39.2839 13.1221 39.4261 12.9092 39.6149 12.7423C39.8036 12.5754 40.0324 12.4602 40.2789 12.408C37.7509 11.9193 35.5339 12.317 34.3079 14.1297C34.1364 14.3865 34.0284 14.6803 33.9929 14.987L33.9919 14.986Z" fill="#2E2C56"/>
<path fill-rule="evenodd" clip-rule="evenodd" d="M39.8751 13.891L37.8121 24.683V24.696L37.7971 24.7619H38.9151L43.1491 24.7269C45.9161 24.705 48.3321 23.6977 48.4191 20.8239C48.3891 20.1463 48.1205 19.5012 47.6607 19.0024C47.2008 18.5036 46.5794 18.1833 45.9061 18.0979V18.0589C47.4911 17.99 49.0891 16.6959 49.0221 15.1451C48.9601 13.7242 48.0051 12.7309 45.9921 12.2543C44.4701 11.9595 40.4991 11.9705 39.8761 13.891H39.8751ZM41.4121 18.8094L41.4341 18.6984C43.7411 18.5905 45.7121 18.6145 45.8001 20.7239C45.6381 22.5396 44.4401 23.292 42.6001 23.3829L40.5741 23.347L41.4131 18.8104L41.4121 18.8094ZM41.6561 17.5513L42.4101 13.6622C42.5021 13.6343 42.6011 13.6083 42.7051 13.5823C43.3947 13.3902 44.1155 13.3362 44.8261 13.4234L44.8741 13.4314C45.2914 13.4364 45.6929 13.5915 46.0051 13.8683C46.3173 14.145 46.5193 14.5248 46.5741 14.9383C46.5788 15.3326 46.5061 15.724 46.3601 16.0904C46.2333 16.4046 46.0264 16.6802 45.7601 16.8898C45.0968 17.3518 44.3045 17.5927 43.4961 17.5783L41.6531 17.5503L41.6561 17.5513Z" fill="#2E2C56"/>
<path fill-rule="evenodd" clip-rule="evenodd" d="M56.7139 24.59C57.0959 22.5915 57.4589 20.6649 57.8409 18.6634C58.0959 16.9527 57.2509 16.0554 55.6529 15.7137C54.1694 15.3511 52.6078 15.4852 51.2079 16.0954L50.5479 17.4833C51.6905 17.0133 52.9288 16.8228 54.1599 16.9277C55.4339 17.061 55.8623 17.7202 55.4449 18.9053C52.2449 18.9472 49.8589 19.6257 48.9159 21.4384C48.7485 21.8542 48.7154 22.3119 48.8212 22.7475C48.927 23.183 49.1664 23.5747 49.5059 23.8676C50.5945 24.5035 51.8472 24.8028 53.1059 24.7279C54.3116 24.7548 55.5179 24.7084 56.7179 24.589L56.7139 24.59ZM55.2369 19.8446L54.5539 23.6867C53.4539 23.6707 51.1539 23.9145 51.0379 22.3217C51.072 21.8249 51.2655 21.3524 51.5898 20.9744C51.9141 20.5963 52.3518 20.3329 52.8379 20.2233C53.6157 19.9829 54.4239 19.8553 55.2379 19.8446H55.2369Z" fill="#2E2C56"/>
<path fill-rule="evenodd" clip-rule="evenodd" d="M66.265 24.7466C66.645 22.7561 66.965 20.7497 67.389 18.7711C67.4501 18.5086 67.4872 18.241 67.5 17.9717C67.593 14.5743 60.862 15.6655 59.27 16.306L57.718 24.7456L59.967 24.7636H60.142L61.458 17.3592C62.267 17.0274 65.181 16.5298 65.115 18.2585L63.888 24.7626H64.82L66.264 24.7466H66.265Z" fill="#2E2C56"/>
<path fill-rule="evenodd" clip-rule="evenodd" d="M70.236 12.521L67.896 24.7608H70.327L71.192 20.2382L74 24.7608H76.743L73.52 19.9474L77.965 15.9225L75.499 15.8875L71.272 19.8145L72.666 12.52L70.236 12.521Z" fill="#2E2C56"/>
<path fill-rule="evenodd" clip-rule="evenodd" d="M60.3469 13.0106L64.5549 12.9846C65.0753 13.0257 65.5987 12.9602 66.0929 12.7922C66.5871 12.6242 67.0419 12.3572 67.4293 12.0076C67.8167 11.658 68.1287 11.233 68.3461 10.7588C68.5636 10.2845 68.6819 9.77094 68.6939 9.24942C68.6279 7.68759 67.4939 6.86121 66.0639 6.48449V6.44552C67.6489 6.37657 69.2469 5.08253 69.1789 3.5327C69.1029 1.795 67.1999 0.745783 65.6289 0.745783H65.1469L64.0339 0.737793H55.8469C55.1666 0.779967 54.5075 0.990336 53.9287 1.34997C53.35 1.70961 52.8696 2.20727 52.5309 2.79826C52.4323 2.95851 52.3644 3.13573 52.3309 3.32085L50.1609 13.0136L60.3469 13.0106ZM53.3049 4.00335L51.4339 12.0353C52.8617 12.2917 54.3336 11.9936 55.5489 11.2019C56.01 10.83 56.4331 10.4133 56.8119 9.95787L61.1899 4.67783C62.0923 3.41303 63.2645 2.36422 64.6219 1.60714C63.2939 1.61085 61.9879 1.94536 60.8219 2.58041C60.4611 2.78587 60.1419 3.05702 59.8809 3.37983L54.1669 9.75405C54.5009 8.20121 54.8999 6.32061 55.3149 4.64886C55.3439 4.53195 55.3809 4.41905 55.4019 4.30613C55.4704 3.70631 55.7182 3.14102 56.1129 2.684C56.5077 2.22697 57.0311 1.8994 57.6149 1.74403C56.7441 1.50231 55.8138 1.60093 55.0131 2.01982C54.2123 2.43872 53.6012 3.14649 53.3039 3.99936L53.3049 4.00335Z" fill="#FFDB45"/>
</g>
<defs>
<clipPath id="clip0_161_16">
<rect width="77.965" height="24.024" fill="white" transform="translate(0 0.737793)"/>
</clipPath>
</defs>
</svg>
