<svg width="162" height="29" viewBox="0 0 162 29" fill="none" xmlns="http://www.w3.org/2000/svg">
<path d="M158.735 0.143311C158.019 0.142863 157.313 0.313854 156.677 0.641969C156.04 0.970083 155.492 1.44577 155.077 2.0293L150.277 8.72925L153.028 12.5693L161.916 0.143311H158.735Z" fill="#357CE1"/>
<path d="M10.8789 22.5603C8.91857 19.7123 8.0464 16.2548 8.42139 12.8178C8.79637 9.38067 10.3935 6.19255 12.9219 3.83423C14.3063 2.55056 15.9301 1.55225 17.7004 0.896123C19.4707 0.239996 21.3529 -0.0610571 23.2395 0.0102591C25.1261 0.0815753 26.9803 0.523871 28.696 1.31177C30.4118 2.09967 31.9554 3.21778 33.239 4.6023C33.4697 4.85097 33.6911 5.10765 33.9038 5.37232L33.9209 5.39625C33.9708 5.47295 33.9885 5.5663 33.9697 5.65589C33.951 5.74548 33.8973 5.82403 33.8208 5.87427L30.6689 7.97425C30.598 8.02088 30.513 8.04101 30.4287 8.03113C30.3444 8.02126 30.2662 7.98206 30.208 7.92029C29.264 6.81074 28.0846 5.92538 26.7556 5.32862C25.4266 4.73185 23.9814 4.43872 22.5249 4.47034C21.2236 4.48886 19.9388 4.76354 18.7437 5.27869C17.5485 5.79385 16.4665 6.53931 15.5596 7.47266C14.6526 8.40601 13.9382 9.50886 13.4575 10.7183C12.9768 11.9277 12.739 13.2199 12.7578 14.5212C12.7949 17.1277 13.8576 19.6146 15.7156 21.443C17.5735 23.2714 20.0771 24.294 22.6838 24.2893C24.1142 24.2898 25.5277 23.98 26.8267 23.3812C28.1256 22.7825 29.2793 21.9091 30.208 20.8213C30.2663 20.76 30.3442 20.7209 30.4282 20.7111C30.5123 20.7012 30.5971 20.7212 30.668 20.7673L33.8208 22.8673L33.844 22.8843C33.9159 22.941 33.9623 23.0238 33.9731 23.1148C33.984 23.2057 33.9583 23.2972 33.9019 23.3693C31.5133 26.3409 28.0422 28.242 24.252 28.6545C20.4618 29.0671 16.6629 27.9574 13.6909 25.5693C12.6125 24.7025 11.6648 23.6846 10.877 22.5472L10.8789 22.5603ZM156.848 28.4763C156.738 28.4763 156.629 28.4499 156.531 28.3994C156.433 28.349 156.348 28.276 156.284 28.1863L149.384 18.5383C149.358 18.5015 149.324 18.4702 149.286 18.4463C149.247 18.4224 149.205 18.4063 149.16 18.3989C149.115 18.3916 149.069 18.3931 149.025 18.4034C148.981 18.4138 148.94 18.4328 148.903 18.4592C148.873 18.4813 148.846 18.508 148.824 18.5383L141.924 28.1863C141.859 28.2759 141.774 28.349 141.676 28.3995C141.578 28.4501 141.469 28.4768 141.359 28.4773H136.896C136.824 28.4763 136.754 28.4529 136.696 28.4103C136.658 28.3834 136.627 28.3495 136.602 28.3103C136.578 28.2712 136.561 28.2275 136.554 28.182C136.546 28.1365 136.548 28.09 136.558 28.045C136.569 28.0001 136.588 27.9578 136.615 27.9203L146.115 14.6522C146.187 14.552 146.226 14.4317 146.226 14.3082C146.226 14.1848 146.187 14.0644 146.115 13.9642L136.61 0.698247C136.555 0.622507 136.533 0.528346 136.548 0.436284C136.563 0.344223 136.614 0.261821 136.69 0.207281C136.748 0.16521 136.818 0.14212 136.89 0.141241H141.342C141.452 0.141045 141.561 0.167333 141.66 0.217779C141.758 0.268225 141.843 0.341407 141.907 0.43128L161.597 27.9203C161.624 27.958 161.643 28.0007 161.654 28.0459C161.664 28.0911 161.665 28.1378 161.658 28.1835C161.65 28.2292 161.633 28.273 161.609 28.3123C161.584 28.3515 161.552 28.3855 161.514 28.4122C161.455 28.4537 161.386 28.4764 161.314 28.4773L156.848 28.4763ZM89.2979 28.4692C89.2525 28.4694 89.2077 28.4606 89.1658 28.4434C89.1239 28.4261 89.0858 28.4008 89.0537 28.3689C89.0216 28.337 88.996 28.299 88.9785 28.2572C88.9611 28.2154 88.952 28.1706 88.9519 28.1252L88.9409 28.1152V0.498296C88.9398 0.405427 88.9752 0.315876 89.0396 0.248907C89.1039 0.181937 89.1921 0.142881 89.2849 0.140264H100.151C102.568 0.119424 104.9 1.03233 106.661 2.68873C108.422 4.34512 109.475 6.61718 109.602 9.03125C109.82 14.8963 104.49 18.4613 100.37 18.6173C99.1699 18.6623 96.026 18.6613 93.73 18.6503C93.6892 18.65 93.6486 18.6578 93.6108 18.6732C93.5731 18.6886 93.5387 18.7113 93.5098 18.74C93.4808 18.7687 93.4577 18.8028 93.4419 18.8405C93.4261 18.8781 93.4181 18.9184 93.418 18.9592V28.1262C93.4177 28.2178 93.381 28.3056 93.3162 28.3702C93.2513 28.4349 93.1636 28.4713 93.072 28.4713L89.2979 28.4692ZM93.418 4.93323V13.8232C93.4178 13.8644 93.4257 13.9052 93.4414 13.9432C93.4571 13.9813 93.4802 14.0158 93.5093 14.0449C93.5384 14.074 93.5731 14.097 93.6111 14.1127C93.6491 14.1284 93.6898 14.1364 93.731 14.1362H100.37C100.995 14.1361 101.613 14.0129 102.191 13.7737C102.768 13.5345 103.292 13.1839 103.734 12.7419C104.176 12.3 104.526 11.7754 104.765 11.1981C105.004 10.6208 105.127 10.0022 105.127 9.37732C105.127 9.1999 105.117 9.0226 105.097 8.84632C104.945 7.66882 104.366 6.58805 103.47 5.80933C102.574 5.03061 101.423 4.60818 100.236 4.62232H93.7358C93.653 4.62232 93.5736 4.65515 93.5149 4.71363C93.4562 4.77211 93.4231 4.85149 93.4229 4.93433L93.418 4.93323ZM53.8279 28.4692C53.7266 28.4696 53.6269 28.4432 53.5391 28.3926C53.4513 28.342 53.3785 28.2691 53.3279 28.1813L47.8279 18.6543L45.459 14.5543C45.4219 14.4907 45.4114 14.4149 45.4302 14.3436C45.4489 14.2724 45.4952 14.2115 45.5588 14.1743C45.6015 14.1501 45.6499 14.1373 45.699 14.1373H49.293C49.9178 14.1376 50.5364 14.0148 51.1138 13.7759C51.6911 13.537 52.216 13.1868 52.658 12.7451C53.1 12.3035 53.4506 11.7791 53.6899 11.2019C53.9293 10.6247 54.0527 10.0061 54.053 9.38123C54.0529 9.11822 54.0313 8.85575 53.988 8.59632C53.7854 7.47178 53.1905 6.45545 52.3093 5.72803C51.4281 5.00062 50.3174 4.6092 49.1748 4.6233H42.689C42.5976 4.6233 42.51 4.65952 42.4453 4.724C42.3806 4.78849 42.3443 4.87596 42.344 4.96729V28.1262C42.344 28.2177 42.3076 28.3055 42.2429 28.3702C42.1782 28.4349 42.0905 28.4713 41.999 28.4713H38.2249C38.1335 28.4713 38.0459 28.4351 37.9812 28.3706C37.9165 28.3061 37.8801 28.2187 37.8799 28.1273L37.8679 28.1173V0.500249C37.8671 0.407287 37.9028 0.317801 37.9673 0.25086C38.0318 0.183919 38.12 0.144954 38.2129 0.142339H49.0989C51.4638 0.122772 53.7488 0.998374 55.4949 2.59351C57.241 4.18865 58.3191 6.38523 58.5129 8.74231C58.6139 10.6484 58.1194 12.5387 57.0981 14.1512C56.0769 15.7638 54.5793 17.0188 52.813 17.7423C52.7459 17.7721 52.6933 17.8271 52.6667 17.8955C52.6401 17.9639 52.6416 18.04 52.6709 18.1073C52.6709 18.1163 52.6798 18.1253 52.6838 18.1333L58.4539 28.1262C58.484 28.1791 58.4923 28.2417 58.4766 28.3005C58.4608 28.3593 58.4224 28.4096 58.3699 28.4403C58.3348 28.4604 58.2952 28.471 58.2549 28.4713L53.8279 28.4692ZM70.4758 28.4623C70.3839 28.4623 70.2957 28.4259 70.2305 28.3611C70.1653 28.2963 70.1285 28.2083 70.1279 28.1163V19.4263C70.1283 19.2434 70.0805 19.0637 69.989 18.9053L59.457 0.66126C59.4109 0.581531 59.398 0.48675 59.4216 0.39771C59.4453 0.30867 59.5034 0.23266 59.583 0.186284C59.6359 0.155697 59.6957 0.139496 59.7568 0.139287H63.9219C64.0436 0.139568 64.1632 0.171832 64.2686 0.232915C64.3739 0.293998 64.4613 0.381772 64.522 0.48731L72.0959 13.6052C72.1374 13.677 72.2056 13.7295 72.2856 13.7511C72.3657 13.7727 72.4511 13.7616 72.5229 13.7203C72.5709 13.693 72.6106 13.6532 72.6379 13.6052L80.2109 0.48731C80.2721 0.382176 80.3596 0.294793 80.4648 0.23377C80.5701 0.172747 80.6894 0.140168 80.811 0.139287H84.9758C85.0215 0.139156 85.0669 0.148043 85.1091 0.16541C85.1514 0.182778 85.1898 0.208262 85.2222 0.240484C85.2546 0.272706 85.2805 0.310983 85.2981 0.353155C85.3157 0.395326 85.3248 0.440633 85.325 0.486333C85.3247 0.547429 85.3083 0.607345 85.2778 0.660284L74.74 18.9122C74.6481 19.0705 74.5996 19.2502 74.5999 19.4332V28.1163C74.5999 28.1619 74.5909 28.2069 74.5735 28.249C74.556 28.2911 74.5305 28.3295 74.4983 28.3617C74.4661 28.3939 74.4278 28.4195 74.3857 28.4369C74.3436 28.4543 74.2985 28.4633 74.2529 28.4633H70.4719L70.4758 28.4623ZM0.344971 28.4623C0.253725 28.462 0.166177 28.4258 0.101562 28.3613C0.0369479 28.2969 0.00052706 28.2095 0 28.1183V0.142339C1.1852 0.144722 2.32104 0.616971 3.15845 1.45569C3.99586 2.29442 4.46627 3.43113 4.4668 4.61634V28.1163C4.46693 28.1616 4.45815 28.2063 4.44092 28.2482C4.42369 28.29 4.39841 28.3282 4.36646 28.3602C4.3345 28.3923 4.29668 28.4176 4.25488 28.4349C4.21308 28.4523 4.16806 28.4613 4.1228 28.4613H0.3479L0.344971 28.4623ZM113.606 28.4623C113.515 28.4623 113.427 28.4261 113.362 28.3616C113.298 28.2971 113.261 28.2096 113.261 28.1183V0.501226C113.26 0.408188 113.296 0.318467 113.36 0.25147C113.425 0.184473 113.513 0.145675 113.606 0.143316H132.339C132.432 0.145416 132.521 0.184377 132.586 0.251836C132.651 0.319295 132.686 0.40975 132.685 0.503301V4.2743C132.685 4.3658 132.649 4.45349 132.584 4.51819C132.519 4.58289 132.431 4.61927 132.34 4.61927H118.075C118.03 4.61927 117.985 4.62816 117.943 4.64551C117.901 4.66286 117.863 4.68829 117.831 4.72034C117.799 4.75239 117.774 4.79043 117.757 4.83228C117.74 4.87413 117.731 4.91898 117.731 4.96424V11.7103C117.732 11.8027 117.768 11.8912 117.832 11.958C117.896 12.0248 117.983 12.065 118.075 12.0703H130.026C130.117 12.0703 130.205 12.1067 130.27 12.1714C130.334 12.2361 130.371 12.3238 130.371 12.4153L130.381 16.1973C130.381 16.2426 130.372 16.2876 130.355 16.3296C130.338 16.3716 130.313 16.4096 130.281 16.4418C130.249 16.4739 130.211 16.4994 130.169 16.5169C130.127 16.5343 130.082 16.5433 130.037 16.5433H118.074C118.029 16.5433 117.984 16.5522 117.942 16.5696C117.9 16.5869 117.862 16.6124 117.83 16.6444C117.798 16.6765 117.773 16.7145 117.756 16.7564C117.739 16.7982 117.73 16.8431 117.73 16.8883V23.6362C117.729 23.6807 117.737 23.7249 117.753 23.7664C117.769 23.8078 117.793 23.8456 117.824 23.8777C117.854 23.9098 117.891 23.9353 117.932 23.9531C117.973 23.9709 118.017 23.9806 118.061 23.9813H132.334C132.38 23.9824 132.426 23.9925 132.469 24.0112C132.511 24.0299 132.549 24.0568 132.581 24.0903C132.613 24.1239 132.638 24.1633 132.655 24.2065C132.672 24.2498 132.68 24.2959 132.679 24.3423L132.684 28.1173C132.684 28.2085 132.648 28.296 132.583 28.3605C132.519 28.425 132.431 28.4613 132.34 28.4613L113.606 28.4623Z" fill="#243455"/>
</svg>
